<?xml version="1.0" encoding="utf-8"?>
<!-- Generator: Adobe Illustrator 23.0.3, SVG Export Plug-In . SVG Version: 6.00 Build 0)  -->
<svg version="1.1" id="Layer_2" xmlns="http://www.w3.org/2000/svg" xmlns:xlink="http://www.w3.org/1999/xlink" x="0px" y="0px"
	 viewBox="0 0 620 350" style="enable-background:new 0 0 620 350;" xml:space="preserve">
<style type="text/css">
	.st0{fill:#4BA16D;}
	.st1{fill:#3E9460;}
	.st2{fill:#32784D;}
	.st3{fill:#6F7FF0;}
	.st4{fill:#E3E4FB;}
	.st5{fill:#B6B8E3;}
	.st6{fill:#F1F1FB;}
	.st7{fill:#8290F0;}
	.st8{fill:#303769;}
	.st9{fill:#465196;}
	.st10{fill:#231F20;}
	.st11{fill:#6CE49C;}
	.st12{fill:#5662B5;}
	.st13{fill:#FFFFFF;}
	.st14{fill:#ADB5F0;}
	.st15{fill:#7686FF;}
	.st16{fill:#5BC285;}
	.st17{fill:#6072F0;}
</style>
<g>
	<path class="st0" d="M256.7,136.4c-1.8-11.7-11.7-43.8-16.9-43.8c-5.2,0-15.4,31.9-17.4,43.6c-1.9,11.7,3.6,18.2,17,18.3
		C252.9,154.6,258.5,148.1,256.7,136.4z"/>
	<path class="st1" d="M256.3,133.8c-1.9,5.8-7.5,8.9-16.8,8.8c-9.1-0.1-14.6-3.1-16.6-8.8c-0.2,0.8-0.3,1.6-0.4,2.3
		c-1.9,11.7,3.6,18.2,17,18.3c13.4,0.1,19-6.4,17.2-18.1C256.6,135.6,256.4,134.7,256.3,133.8z"/>
	<path class="st1" d="M284.9,124.5c-1.8-11.7-11.7-43.8-16.9-43.8c-5.2,0-15.4,31.9-17.4,43.6c-1.9,11.7,3.6,18.2,17,18.3
		C281.1,142.7,286.8,136.2,284.9,124.5z"/>
	<path class="st2" d="M284.8,123.7c-1.6,6.6-7.2,10.1-17.1,10c-9.8-0.1-15.4-3.6-16.9-10c0,0.2-0.1,0.4-0.1,0.5
		c-1.9,11.7,3.6,18.2,17,18.3c13.4,0.1,19.1-6.4,17.2-18.1C284.9,124.3,284.9,124,284.8,123.7z"/>
	<g>
		<polygon class="st3" points="380.1,87.7 361.5,117.9 274.9,117.9 292.7,87.7 		"/>
		<rect x="274.9" y="117.9" class="st4" width="87.4" height="46.5"/>
		<polygon class="st5" points="380.1,87.7 361.5,117.9 361.5,164.4 398.7,164.4 398.7,117.9 		"/>
		<polygon class="st6" points="318.6,93.4 293.3,117.9 293.3,164.4 344.8,164.4 344.8,117.9 		"/>
		<rect x="310.3" y="136.8" class="st7" width="17.2" height="27.5"/>
		<rect x="312.3" y="139.4" class="st3" width="13.3" height="24.3"/>
		<rect x="313.6" y="115.3" class="st8" width="10.9" height="9"/>
		<rect x="314.6" y="117.3" class="st9" width="6.7" height="5.6"/>
		<rect x="374.7" y="114.5" class="st8" width="10.9" height="9"/>
		<rect x="375.7" y="116.3" class="st9" width="6.7" height="5.6"/>
		<rect x="374.7" y="141.1" class="st8" width="10.9" height="9"/>
		<rect x="375.7" y="142.9" class="st9" width="6.7" height="5.6"/>
	</g>
	<path class="st10" d="M267.8,135.7c-0.4,0-0.8-0.2-1.1-0.5l-8.7-9.9c-0.5-0.6-0.5-1.6,0.1-2.1c0.6-0.5,1.6-0.5,2.1,0.1l8.7,9.9
		c0.5,0.6,0.5,1.6-0.1,2.1C268.5,135.6,268.1,135.7,267.8,135.7z"/>
	<path class="st10" d="M267.8,165.9c-0.8,0-1.5-0.7-1.5-1.5v-44.9l5.1-11.2c0.3-0.8,1.2-1.1,2-0.7c0.8,0.3,1.1,1.2,0.7,2l-4.8,10.6
		v44.3C269.3,165.2,268.6,165.9,267.8,165.9z"/>
	<path class="st10" d="M267.8,121.3c-0.8,0-1.5-0.7-1.5-1.5v-10.9c0-0.8,0.7-1.5,1.5-1.5s1.5,0.7,1.5,1.5v10.9
		C269.3,120.6,268.6,121.3,267.8,121.3z"/>
	<path class="st0" d="M241.8,163.4c0,0,126.9,0,168.7,0s24.9,42.9,61.4,43.6s50.8,21.1,56.5,42.5s23.9,23.8,37.3,43.7
		c13.4,19.9,6.7,45.1,6.7,45.1l-355.5-36.5L241.8,163.4z"/>
	<path class="st11" d="M56.7,349.6h543.6c0,0,4-30.8-41.1-36.7c-27-3.5-23.3-32.5-60.2-42.3s-383.1,9.8-383.1,9.8
		S61.8,286.1,56.7,349.6z"/>
	<rect x="244.4" y="215.8" class="st6" width="97" height="133.8"/>
	<polygon class="st5" points="360.9,198.3 354.5,180.7 348,198.3 341.6,215.8 341.6,349.6 367.4,349.6 367.4,215.8 	"/>
	<polygon class="st3" points="354.3,180.7 341.6,215.8 244.4,215.8 257.5,180.7 	"/>
	<rect x="275.2" y="300.1" class="st7" width="32.7" height="49.5"/>
	<rect x="278.8" y="303.5" class="st3" width="25.5" height="46.1"/>
	<rect x="253" y="247.3" class="st12" width="15.4" height="19.6"/>
	<rect x="255.1" y="250.9" class="st7" width="5.4" height="12.5"/>
	<rect x="253" y="301.9" class="st12" width="15.4" height="19.6"/>
	<rect x="315.8" y="301.9" class="st12" width="15.4" height="19.6"/>
	<rect x="284.4" y="247.3" class="st12" width="15.4" height="19.6"/>
	<rect x="315.8" y="247.3" class="st12" width="15.4" height="19.6"/>
	<g>
		<rect x="350.6" y="301.9" class="st13" width="15.4" height="19.6"/>
		<path class="st10" d="M366.5,322H350v-20.6h16.4V322z M351,321h14.4v-18.6H351V321z"/>
	</g>
	<g>
		<rect x="350.6" y="247.3" class="st13" width="15.4" height="19.6"/>
		<path class="st10" d="M366.5,267.4H350v-20.6h16.4V267.4z M351,266.4h14.4v-18.6H351V266.4z"/>
	</g>
	<polygon class="st5" points="489.5,215.8 463.6,254.7 463.6,349.6 515.5,349.6 515.5,254.7 	"/>
	<polygon class="st3" points="341.4,254.7 367.4,215.8 489.5,215.8 463.6,254.7 	"/>
	<polygon class="st4" points="422.8,254.7 402,234 378.6,254.7 341.3,254.7 341.3,349.6 463.5,349.6 463.5,254.7 	"/>
	<polygon class="st12" points="401.9,234 421.9,254.7 454.5,254.7 434.1,234.4 	"/>
	<rect x="387.4" y="288" class="st7" width="30" height="61.6"/>
	<rect x="390.3" y="291.8" class="st3" width="24.2" height="57.8"/>
	<rect x="354.7" y="289" class="st14" width="20.2" height="25.7"/>
	<rect x="356.7" y="293.1" class="st7" width="11.3" height="19.6"/>
	<rect x="430.4" y="289" class="st14" width="20.2" height="25.7"/>
	<rect x="433.4" y="293.1" class="st7" width="11.3" height="19.6"/>
	<rect x="482.6" y="260.8" class="st9" width="15.4" height="19.6"/>
	<rect x="482.6" y="295.1" class="st9" width="15.4" height="19.6"/>
	<rect x="485.6" y="297" class="st8" width="7.7" height="11.2"/>
	<rect x="485.6" y="265" class="st8" width="7.7" height="11.2"/>
	<circle class="st14" cx="401.6" cy="257.1" r="9.8"/>
	<circle class="st7" cx="401.6" cy="257.1" r="7.6"/>
	<rect x="226.3" y="141.6" class="st8" width="18.1" height="208"/>
	<rect x="170.1" y="141.6" class="st7" width="56.2" height="208"/>
	<rect x="152" y="141.6" class="st8" width="18.1" height="208"/>
	<rect x="152" y="141.6" class="st9" width="7.5" height="208"/>
	<rect x="226.3" y="141.6" class="st9" width="7.5" height="208"/>
	<polygon class="st7" points="198.2,31.9 226.3,141.6 198.1,141.6 169.9,141.6 	"/>
	<polygon class="st14" points="198.7,217.5 179.9,217.5 161.1,217.5 161.1,277.1 179.9,277.1 198.7,277.1 217.5,277.1 217.5,217.5 	
		"/>
	<polygon class="st15" points="207.5,196.5 207.5,196.5 188.6,196.5 184.1,196.5 169.8,196.5 161.1,217.5 175.3,217.5 179.9,217.5 
		198.7,217.5 217.5,217.5 226.3,196.5 	"/>
	<polygon class="st3" points="244.4,141.6 198.2,31.9 226.3,141.6 	"/>
	<polygon class="st8" points="257.5,180.7 244.4,180.7 244.4,215.8 	"/>
	<circle class="st4" cx="197.9" cy="155.7" r="7.7"/>
	<circle class="st13" cx="197.9" cy="155.7" r="6.5"/>
	<polygon class="st3" points="217.5,277.1 226.3,277.1 226.3,196.5 217.5,217.5 	"/>
	<rect x="161.1" y="246.8" class="st13" width="55.8" height="1"/>
	<rect x="170.5" y="169.3" class="st13" width="55.8" height="1"/>
	<rect x="169.8" y="311.2" class="st13" width="56.4" height="1"/>
	<polygon class="st13" points="199.2,277.1 198.2,277.1 198.2,217.4 198.2,217.3 207,196.4 207,141.6 198.2,37.7 189.1,141.7 
		189.1,196.6 189.1,196.7 180.4,217.6 180.4,277.1 179.4,277.1 179.4,217.4 179.4,217.3 188.1,196.4 188.1,141.6 197.7,31.8 
		198.7,31.8 208,141.6 208,196.6 199.2,217.6 	"/>
	<rect x="179.9" y="100.6" class="st13" width="47.2" height="1"/>
	<rect x="97.2" y="236.8" class="st4" width="54.8" height="112.8"/>
	<polygon class="st3" points="115.4,210.6 97.2,236.8 152,236.8 152,210.6 	"/>
	<rect x="106.7" y="254.7" class="st7" width="12.1" height="15.9"/>
	<rect x="128.2" y="254.7" class="st7" width="12.1" height="15.9"/>
	<rect x="106.7" y="297" class="st7" width="12.1" height="15.9"/>
	<rect x="128.2" y="297" class="st7" width="12.1" height="15.9"/>
	<rect x="129.8" y="298.2" class="st14" width="3.4" height="13.5"/>
	<rect x="129.8" y="255.9" class="st14" width="3.4" height="13.5"/>
	<rect x="108.4" y="298.2" class="st14" width="3.4" height="13.5"/>
	<path class="st0" d="M592.4,297.6c-3.1-19.9-19.9-74.5-28.7-74.6c-8.8-0.1-26.3,54.3-29.6,74.2c-3.3,19.9,6.2,31,29,31.2
		C585.8,328.6,595.5,317.5,592.4,297.6z"/>
	<path class="st1" d="M592.2,296.4c-2.6,11.2-12.3,17.2-29.2,17.1c-16.6-0.1-26.2-6.1-28.8-17c0,0.3-0.1,0.5-0.1,0.8
		c-3.3,19.9,6.2,31,29,31.2c22.8,0.1,32.4-10.9,29.4-30.8C592.4,297.2,592.3,296.8,592.2,296.4z"/>
	<path class="st11" d="M554.8,249.3c-1.3-1.5-1.8-3.5-1.5-5.5c0.2-1.4,0.3-2.8,0.3-4.2c0-6.9-2.5-13.1-6.7-18
		c-1.8-2.1-2.3-4.9-1.3-7.4c1-2.6,1.5-5.5,1.4-8.5c-0.5-10.6-9-19.4-19.7-20c-12.2-0.8-22.3,8.9-22.3,21c0,2.7,0.5,5.3,1.4,7.6
		c1,2.5,0.4,5.3-1.3,7.3c-4.2,4.8-6.7,11.1-6.7,18c0,1.4,0.1,2.8,0.3,4.2c0.3,2-0.3,4-1.6,5.5c-5.6,6.9-8.8,15.9-8.3,25.6
		c1.1,19,16.7,34.3,35.6,35c21.2,0.8,38.6-16.1,38.6-37.1C563.2,263.9,560.1,255.7,554.8,249.3z"/>
	<path class="st16" d="M524.6,289.5c-16.2-0.6-29.9-11.8-34.3-26.9c-1.1,3.9-1.6,8.1-1.4,12.4c1.1,19,16.7,34.3,35.6,35
		c21.2,0.8,38.6-16.1,38.6-37.1c0-3.6-0.5-7-1.4-10.2C557.2,278.6,542.2,290.1,524.6,289.5z"/>
	<path class="st0" d="M96.6,337.4c-0.6-8.9-5.1-15.9-10.6-15.9c-5.9,0-10.6,8-10.6,17.8c0,3.8,0.7,7.4,1.9,10.3H105
		c2.9-4.3,3.4-8.8,1-11.3C104,336.2,100.4,336,96.6,337.4z"/>
	<path class="st0" d="M506.5,335.3c1.1-8.7,7.1-15.3,14.3-15.3c6.9,0,12.7,6.1,14.2,14.3c1.3-0.8,2.8-1.2,4.4-1.2
		c5.4,0,9.7,4.8,9.7,10.7c0,2.2-0.6,4.2-1.6,5.9h-46.9c-3-3.5-3.5-8.2-0.9-11.3C501.4,336.4,503.8,335.4,506.5,335.3z"/>
	<path class="st1" d="M548.6,339.4c-0.7-6.2-4.6-10.9-9.3-10.9c-4.5,0-8.3,4.4-9.2,10.2c-0.9-0.5-1.8-0.8-2.9-0.8
		c-3.5,0-6.3,3.4-6.3,7.6c0,1.6,0.4,3,1,4.2h30.5c2-2.5,2.3-5.8,0.6-8.1C551.9,340.2,550.3,339.5,548.6,339.4z"/>
	<rect x="188.5" y="276.6" class="st13" width="1" height="72.3"/>
	<rect x="207" y="277.1" class="st13" width="1" height="72.5"/>
	<rect x="169.9" y="141.1" class="st13" width="56.4" height="1"/>
	<path class="st10" d="M526.5,351c-0.8,0-1.5-0.7-1.5-1.5V215.7c0-0.8,0.7-1.5,1.5-1.5s1.5,0.7,1.5,1.5v133.8
		C528,350.3,527.3,351,526.5,351z"/>
	<path class="st10" d="M525.1,245.9c-6,0-10.5-1.7-13.4-5.1c-4.8-5.5-3.5-13.3-3.5-13.6c0.1-0.8,0.9-1.4,1.7-1.2
		c0.8,0.1,1.4,0.9,1.2,1.7l0,0c0,0.1-1.1,6.7,2.8,11.2c2.5,2.8,6.5,4.2,11.9,4.1c0.8-0.1,1.5,0.6,1.5,1.5c0,0.8-0.6,1.5-1.5,1.5
		C525.6,245.9,525.3,245.9,525.1,245.9z"/>
	<path class="st10" d="M529.5,284.2c-1,0-2.1,0-3.2-0.1c-0.8-0.1-1.4-0.8-1.4-1.6c0.1-0.8,0.8-1.5,1.6-1.4
		c7.9,0.6,13.8-1.2,17.3-5.2c6.1-6.9,3.8-18.3,3.7-18.4c-0.2-0.8,0.4-1.6,1.2-1.8c0.8-0.2,1.6,0.4,1.8,1.2c0.1,0.5,2.6,13-4.4,21
		C542.5,282,536.9,284.2,529.5,284.2z"/>
	<path class="st10" d="M524.3,272.2c-3.4,0-6-0.9-7.8-2.7c-2.8-2.8-2.5-6.8-2.5-6.9c0.1-0.8,0.8-1.4,1.6-1.4
		c0.8,0.1,1.4,0.8,1.4,1.6c0,0-0.2,2.7,1.7,4.6c1.5,1.5,3.9,2.1,7.3,1.8c0.8-0.1,1.6,0.5,1.6,1.4s-0.5,1.6-1.4,1.6
		C525.5,272.2,524.9,272.2,524.3,272.2z"/>
	<path class="st10" d="M563.2,351.1c-0.8,0-1.5-0.7-1.5-1.5v-47.7c0-0.8,0.7-1.5,1.5-1.5s1.5,0.7,1.5,1.5v47.7
		C564.7,350.4,564,351.1,563.2,351.1z"/>
	<path class="st10" d="M563.2,320.8c-0.3,0-0.5-0.1-0.8-0.2c-0.7-0.4-1-1.3-0.5-2l12.9-22.3c0.4-0.7,1.3-1,2-0.5
		c0.7,0.4,1,1.3,0.5,2L564.5,320C564.2,320.5,563.7,320.8,563.2,320.8z"/>
	<path class="st10" d="M82.9,349.1c-0.8,0-1.5-0.7-1.5-1.5V295c0-0.8,0.7-1.5,1.5-1.5s1.5,0.7,1.5,1.5v52.6
		C84.4,348.4,83.8,349.1,82.9,349.1z"/>
	<path class="st10" d="M83,321C83,321,83,321,83,321c-9.4,0-16.3-2.5-20.5-7.5c-5.7-6.7-4.3-15.3-4.2-15.7c0.1-0.8,0.9-1.4,1.7-1.2
		c0.8,0.1,1.4,0.9,1.2,1.7c0,0.1-1.2,7.6,3.6,13.3c3.6,4.3,9.7,6.4,18.2,6.4c0.8,0,1.5,0.7,1.5,1.5S83.9,321,83,321z"/>
	<path class="st10" d="M83,307.6c-0.8,0-1.4-0.6-1.5-1.4c-0.1-0.8,0.6-1.5,1.4-1.6c10.6-0.6,18.4-3.8,23.2-9.4
		c3-3.4,6.4-9.6,5.5-19.6c0-0.3,0-0.5,0-0.6c0-0.8,0.7-1.5,1.5-1.5c0.8,0,1.5,0.7,1.5,1.5c0,0.1,0,0.2,0,0.3
		c0.9,11-2.9,17.9-6.2,21.8C103,303.4,94.5,306.9,83,307.6C83.1,307.6,83.1,307.6,83,307.6z M114.6,275.1L114.6,275.1L114.6,275.1z"
		/>
	<path class="st1" d="M137.7,243.8c0-9-5.3-16.8-13-20.4c-1.8-0.9-2.9-2.8-2.7-4.8c0.1-0.8,0.1-1.6,0.1-2.5
		c0-18.2-14.7-32.9-32.9-32.9c-16,0-29.4,11.5-32.3,26.6c-0.4,2.3-2.5,3.9-4.9,3.9c0,0-0.1,0-0.1,0c-18.2,0-32.9,14.7-32.9,32.9
		c0,9.8,4.3,18.6,11.1,24.6c1.6,1.4,2.1,3.7,1.3,5.7c-3.1,7.1-2.6,16.1,3.8,24.8c0.3,0.4,0.7,0.8,1.1,1c14.1,10.2,29.1,5.1,35.4-5.8
		c1.2-2,3.5-3,5.8-2.3c3.1,1,6.4,1.5,9.8,1.5c16.3,0,29.9-11.9,32.4-27.5c0.3-1.8,1.5-3.2,3.2-3.8
		C131.4,262,137.7,253.6,137.7,243.8z"/>
	<path class="st2" d="M122.7,246.6c-1.7,0.6-2.9,2-3.2,3.8c-2.6,15.6-16.1,27.5-32.4,27.5c-3.4,0-6.7-0.5-9.8-1.5
		c-2.2-0.7-4.6,0.3-5.8,2.3c-6.2,10.8-21.3,16-35.4,5.8c-0.4-0.3-0.8-0.6-1.1-1c-0.7-0.9-2.5-2-4.8-3.3c-1.8,6.5-0.6,14.3,4.8,21.8
		c0.3,0.4,0.7,0.8,1.1,1c14.1,10.2,29.1,5.1,35.4-5.8c1.2-2,3.5-3,5.8-2.3c3.1,1,6.4,1.5,9.8,1.5c16.3,0,29.9-11.9,32.4-27.5
		c0.3-1.8,1.5-3.2,3.2-3.8c8.7-3.1,15-11.4,15-21.2c0-3.3-0.7-6.4-2-9.2C133.2,240.2,128.5,244.5,122.7,246.6z"/>
	<rect x="286.4" y="250.9" class="st7" width="5.4" height="12.5"/>
	<rect x="318.2" y="250.9" class="st7" width="5.4" height="12.5"/>
	<rect x="255.1" y="305.5" class="st7" width="5.4" height="12.5"/>
	<rect x="318.2" y="305.5" class="st7" width="5.4" height="12.5"/>
	<path class="st11" d="M80.9,332.9c-1.2-10.1-7.5-17.8-15.2-17.8c-7.3,0-13.5,7.1-15,16.6c-1.4-0.9-3-1.4-4.7-1.4
		c-5.7,0-10.3,5.6-10.3,12.4c0,2.5,0.6,4.9,1.7,6.8h49.7c3.2-4.1,3.7-9.5,0.9-13.1C86.3,334.3,83.8,333.1,80.9,332.9z"/>
	<path class="st16" d="M82.3,340.2c-0.9-5.7-5.9-10-11.9-10c-5.8,0-10.6,4-11.8,9.4c-1.1-0.5-2.4-0.8-3.7-0.8c-4.5,0-8.1,3.1-8.1,7
		c0,1.4,0.5,2.8,1.3,3.9h39c2.5-2.3,2.9-5.4,0.7-7.4C86.5,340.9,84.5,340.3,82.3,340.2z"/>
	<polygon class="st7" points="162.5,238.6 162.5,218.5 174.7,218.5 	"/>
	<polygon class="st7" points="181.9,238.6 181.9,218.5 194.1,218.5 	"/>
	<polygon class="st7" points="200.4,238.6 200.4,218.5 212.6,218.5 	"/>
	<polygon class="st17" points="172.4,192.3 172.4,172.2 184.6,172.2 	"/>
	<polygon class="st17" points="172.4,164.5 172.4,144.5 184.6,144.5 	"/>
	<polygon class="st17" points="192.8,192.3 192.8,172.2 205,172.2 	"/>
	<polygon class="st17" points="211.3,192.3 211.3,172.2 223.5,172.2 	"/>
	<polygon class="st17" points="172.4,300.6 172.4,280.6 184.6,280.6 	"/>
	<polygon class="st17" points="192.8,300.6 192.8,280.6 205,280.6 	"/>
	<polygon class="st17" points="211.3,300.6 211.3,280.6 223.5,280.6 	"/>
	<polygon class="st17" points="211.3,164.5 211.3,144.5 223.5,144.5 	"/>
	<polygon class="st7" points="162.5,258.5 162.5,248.5 169.7,248.5 	"/>
	<polygon class="st7" points="181.9,258.5 181.9,248.5 189.1,248.5 	"/>
	<polygon class="st7" points="200.4,258.5 200.4,248.5 207.6,248.5 	"/>
	<polygon class="st17" points="172,324 172,314 179.2,314 	"/>
	<polygon class="st17" points="192.4,324 192.4,314 199.6,314 	"/>
	<polygon class="st17" points="210.9,324 210.9,314 218.1,314 	"/>
</g>
</svg>
