<?xml version="1.0" encoding="utf-8"?>
<!-- Generator: Adobe Illustrator 23.0.3, SVG Export Plug-In . SVG Version: 6.00 Build 0)  -->
<svg version="1.1" id="Layer_1" xmlns="http://www.w3.org/2000/svg" xmlns:xlink="http://www.w3.org/1999/xlink" x="0px" y="0px"
	 viewBox="0 0 725 656" style="enable-background:new 0 0 725 656;" xml:space="preserve">
<style type="text/css">
	.st0{fill:#E5E6E6;}
	.st1{fill:#0E0F20;}
	.st2{font-family:'Roboto-Regular';}
	.st3{font-size:14px;}
</style>
<g>
	<g>
		<path id="Aleksandrowice" class="st0" d="M392.2,548.3v-4.5l-2.5-7.7l-3.4-3.8l-5.2-4.5l-3.2-2.6c-0.2-0.2-0.4-0.4-0.5-0.7l-1.6-5.6c0-0.1,0-0.1,0-0.2
			l-1.6-9.3c-0.1-0.7,0.2-1.3,0.8-1.6l1.9-0.9l-0.8-1.5h-13.7c-0.8,0-1.5-0.7-1.5-1.5v-6.5l-9.1-0.7c-0.3,0-0.6-0.1-0.8-0.3l-5-4.1
			c-0.5-0.4-0.7-1.2-0.4-1.8c0.3-0.6,1-0.9,1.7-0.7l2.3,0.6l0.5-3h-1.7c-0.4,0-0.8-0.2-1.1-0.5c-0.3-0.3-0.4-0.7-0.4-1.1l1.1-10.2
			l-3-0.1c-0.4,0-0.8-0.2-1.1-0.6c-0.3-0.3-0.4-0.8-0.3-1.2c0.1-0.3,0.1-0.6,0.2-0.9c-1.8,1.3-4.8,3.8-7.3,6
			c-0.1,0.1-0.2,0.1-0.3,0.2c-0.5,0.3-1.1,0.2-1.6-0.1c-0.6-0.4-0.7-1.2-0.4-1.9l3.5-6.4v-3.3l-1.3-4.4c0-0.1,0-0.2-0.1-0.3
			c-0.2-1.4-0.6-6.3-0.2-7.9c0.3-0.9,0.1-3.1,0-3.9l-1.1-10.9l-0.8-4c-0.1,0-0.1,0-0.2,0s-0.1,0-0.2,0.1c-0.2,0-0.3,0.1-0.5,0.1
			s-0.4,0.1-0.6,0.1c-0.1,0-0.2,0-0.4,0.1c-0.2,0-0.3,0.1-0.5,0.1c-0.1,0-0.2,0-0.4,0.1c-0.2,0-0.4,0.1-0.7,0.1c-0.1,0-0.2,0-0.3,0
			c-0.3,0-0.7,0.1-1.1,0.1h-0.1c-0.3,0-0.7,0.1-1,0.1c-0.1,0-0.2,0-0.3,0c-0.3,0-0.6,0-0.9,0c-0.1,0-0.2,0-0.3,0c-0.4,0-0.8,0-1.3,0
			c-4.6-0.2-12.6-0.9-15.7-1.2l-0.8,2.8c0.1,0.4,0.4,1.3,0.9,2.3c0.4,0.7,0.4,1.5,0,2.1c-0.6,1.2-2.4,1.8-3.8,2.2
			c-0.1,3-0.7,9.4-2.6,11.5c-0.1,0.2-0.3,0.3-0.5,0.4c-0.1,0-0.2,0.1-0.3,0.1c-0.1,0.1-0.2,0.1-0.4,0.2c-0.1,0-0.3,0.1-0.4,0.1
			s-0.2,0.1-0.4,0.1c-0.2,0-0.3,0-0.5,0c-0.1,0-0.3,0-0.4,0h-0.1c-0.1,0-0.2,0-0.2,0c-0.3,0-0.7,0-1-0.1c-0.1,0-0.3,0-0.4,0
			c-0.5-0.1-0.9-0.1-1.4-0.2c-0.1,0-0.2-0.1-0.3-0.1c-0.4-0.1-0.8-0.2-1.3-0.3c-0.2,0-0.3-0.1-0.5-0.1c-0.5-0.1-1.1-0.3-1.6-0.5
			c-0.1,0-0.2-0.1-0.3-0.1c-0.5-0.2-1-0.3-1.5-0.5c-0.2-0.1-0.3-0.1-0.5-0.2c-0.6-0.2-1.2-0.4-1.7-0.6h-0.1
			c-0.6-0.2-1.1-0.4-1.7-0.7c-0.1-0.1-0.3-0.1-0.4-0.2c-0.6-0.2-1.1-0.5-1.7-0.7c-0.5-0.2-0.9-0.8-0.9-1.4v-3.8
			c-0.1-0.6-0.5-3.2-0.9-5.5c-0.3-1.9-0.2-4.3-0.1-5.8l-3.8-1.3l-2.5,5.3c-0.2,0.5-0.8,0.8-1.3,0.8h-3.4c0.1,0.8,0.1,1.6-0.3,2.2
			s-1,0.9-1.7,0.9c-0.9,0-3.1-0.6-4.8-1.1c0.7,4.1,0.8,8.3-1.2,9.4c-2.2,1.2-3.9-0.8-4.8-1.8c-0.2-0.3-0.5-0.6-0.7-0.8
			c-0.2,0-0.5,0-0.7,0c-0.1,0-0.2,0-0.3,0c-0.2,0-0.3,0-0.5-0.1c-0.1,0-0.2,0-0.3-0.1c-0.2,0-0.3-0.1-0.5-0.1
			c-0.1,0-0.2-0.1-0.3-0.1c-0.2,0-0.3-0.1-0.5-0.1c-0.1,0-0.1,0-0.2,0v0.1c0,0.1,0,0.3,0,0.4s0,0.1,0,0.2s0,0.2,0.1,0.4
			c0,0.1,0,0.1,0,0.2s0.1,0.3,0.1,0.4s0,0.1,0.1,0.2c0.1,0.2,0.1,0.4,0.2,0.5c0,0,0,0,0,0.1c0.1,0.2,0.2,0.3,0.3,0.4l0.1,0.1
			c0.1,0.1,0.2,0.2,0.3,0.3c0.1,0,0.1,0.1,0.2,0.1c0.1,0.1,0.2,0.2,0.4,0.2c0.1,0,0.1,0.1,0.2,0.1c0.2,0.1,0.4,0.2,0.6,0.2
			c5.3,1,11.5,6.4,11.2,9.8c-0.3,2.9-4.2,3.8-6.2,4.1c-0.8,1.5-2.6,4.2-5.2,4.4c-0.5,0.2-1.4,1.9-2,3c-1.2,2.3-2.7,4.8-4.9,5.8
			c-2.6,1.1-4.6,2.2-5.4,2.6l-3.8,6.8l11.1,2.4c0.1,0,0.2,0.1,0.3,0.1l6,3l5.1,1.7c0.1,0,0.1,0,0.2,0.1l3.9,2
			c0.1,0.1,0.2,0.1,0.4,0.2l11.7,11.1l10.9,9.6c1.2,0.5,6,2.5,7.9,6.2c1.5,2.7,7.4,5.8,12.2,7.5c2.5,0.9,8.5,4.3,13.2,7
			c2.3,1.3,4.5,2.5,5.1,2.8c1.7,0.8,2.8,3.5,3.4,5.8l0.6-0.4c0.4-0.3,0.9-0.4,1.4-0.2s0.8,0.6,0.9,1l1.4,5.8c1-0.2,2.4-0.3,3.5-0.3
			c0.6,0,1.2,0,1.6,0.2c0.7,0.2,2.2,0.6,3.6,8.9v-4.9c0-0.7,0.5-1.3,1.1-1.4L392.2,548.3z"/>
		<path id="Brzoskwinia" class="st0" d="M267.7,501.9l-3.6-1.8l-5.1-1.7c-0.1,0-0.1,0-0.2-0.1l-5.9-3l-12.9-2.8c-0.5-0.1-0.8-0.4-1-0.8
			s-0.2-0.9,0.1-1.3l5-8.9c0.1-0.2,0.3-0.4,0.6-0.6c0.1-0.1,2.5-1.4,6-2.9c1.3-0.6,2.5-2.7,3.5-4.5c1.3-2.3,2.4-4.3,4.3-4.5
			c0.3,0,0.5-0.2,0.8-0.4c0.9-0.7,1.8-2.1,2.3-3.1c0.2-0.4,0.5-0.6,0.8-0.8c0.1,0,0.2-0.1,0.4-0.1c2.2-0.2,4.3-1,4.3-1.5
			c0.1-1.2-4.4-5.9-8.8-6.7c-0.3-0.1-0.6-0.1-0.9-0.2c-0.1,0-0.2-0.1-0.3-0.1c-0.2-0.1-0.3-0.1-0.5-0.2c-0.1,0-0.2-0.1-0.3-0.2
			c-0.1-0.1-0.3-0.1-0.4-0.2c-0.1-0.1-0.2-0.1-0.3-0.2s-0.2-0.2-0.3-0.3c-0.1-0.1-0.2-0.2-0.2-0.3c-0.1-0.1-0.2-0.2-0.3-0.3
			c-0.1-0.1-0.1-0.2-0.2-0.3c-0.1-0.1-0.2-0.2-0.2-0.3c-0.1-0.1-0.1-0.2-0.2-0.3c-0.1-0.1-0.1-0.2-0.2-0.3c-0.1-0.1-0.1-0.2-0.1-0.3
			c0-0.1-0.1-0.2-0.1-0.3c0-0.1-0.1-0.2-0.1-0.3c0-0.1-0.1-0.2-0.1-0.3c0-0.1-0.1-0.2-0.1-0.4c0-0.1-0.1-0.2-0.1-0.3
			c0-0.1,0-0.2-0.1-0.4c0-0.1,0-0.2-0.1-0.3c0-0.1,0-0.2,0-0.4c0-0.1,0-0.2,0-0.3c0-0.1,0-0.2,0-0.3c0-0.1,0-0.2,0-0.3
			c0-0.1,0-0.2,0-0.3c0-0.1,0-0.2,0-0.3c0-0.1,0-0.2,0-0.3c0-0.1,0-0.2,0-0.3c0-0.1,0-0.2,0-0.3c0-0.1,0-0.1,0-0.2v-23.8h-5.9
			c-0.8,0-1.5-0.7-1.5-1.5v-7l-4.8-4.4c0.1,0.5,0.2,1,0.3,1.5c0,0.2,0,0.3,0,0.5c-0.1,0.5-0.4,0.9-0.8,1.1l-4.1,2
			c-0.2,0.1-0.4,0.1-0.6,0.1h-10.4c-0.4,0-1.3,0-3.7-2.7c-0.2-0.2-0.3-0.4-0.3-0.7l-0.7-3.6l-3.6-1.5c0,0,0,0-0.1,0l-0.6,5.2
			c0,0.3-0.2,0.6-0.3,0.8c0,0-0.9,1-1.5,1.8c0.3,0.4,0.8,1.1,1.2,1.6c1,1.3,2.2,2.7,2.9,4.2c1.1,2.4-0.3,3.6-1.2,4.4
			c-0.7,0.6-1.3,1.1-1.3,2.6c0,2.1-0.9,3.2-1.6,3.8c-1.2,1-2.7,1.2-3.5,1.1l-11.3,9.2c-0.4,0.4-1,0.4-1.6,0.2
			c-0.5-0.2-0.8-0.8-0.8-1.3v-7.8l-1.9-1l-5.1,4.2c-0.3,0.3-0.7,0.4-1.2,0.3c-0.4-0.1-0.8-0.3-1-0.7l-1.9-2.9v13.4
			c0,0.4-0.2,0.8-0.5,1.1c-0.1,0.1-0.3,0.2-0.4,0.3h-0.1c-0.2,0.1-0.3,0.1-0.5,0.1l0,0c0,0,0,0-0.1,0c-0.2,0-18.8-0.9-30-1.5
			c-0.3,0-0.7,0-1.1-0.1h-0.1c-10.9-0.5-37.9,0-43.9,0.1c-0.9,5.6-2.6,12.4-5,14.8c-3.1,3.1-7.8,3-9.8,2.7c-1.2,1.5-4,5.1-6.7,8.3
			c-3.2,3.9-16.6,10.9-20.3,12.8v2.1c0,0.4-0.2,0.9-0.5,1.1l-1.9,1.6l-1.8,20l2.5,1.7c0.4,0.3,0.7,0.8,0.7,1.3l-0.2,4.2l0.1,0.9
			l1.9,0.6c0.6,0.2,1,0.7,1,1.3l0.2,4.1c0,0.7-0.5,1.4-1.2,1.5c0,0-2.2,0.4-3.6,1.4c0.1,0.5,0.9,1.8,1.8,2.6c0.3,0.3,0.4,0.6,0.4,1
			v1.1c0.9,0.5,2.5,1.3,3.5,1.7s5.7,2.1,9.3,3.4v-1c0-0.7,0.5-1.3,1.2-1.4c0.5-0.1,1.6-0.3,10.3,4.3c0.4,0.2,0.7,0.7,0.8,1.1
			c0.1,0.5-0.1,1-0.5,1.3c0,0-1.2,1.3-1.9,5.4c-0.8,4.5,1.4,8.8,1.4,8.9c0.2,0.4,0.2,0.8,0,1.2l-0.8,1.9l4.8,0.6
			c0.4,0.1,0.8,0.3,1.1,0.7l3,4.6c1.6-0.2,4.9-0.5,7.4,0.4c2.8,1,8.3,5.6,10.2,7.2l4.1-0.7c0.1,0,0.2,0,0.3,0c0.4,0,0.8,0.2,1.1,0.5
			c4.8,5.6,10.8,12,12.7,13.1c0.3-0.4,0.7-1.7,0.1-5.6c-0.3-2.4-3.1-10.2-4.1-13c-0.1-0.2-0.1-0.4-0.1-0.6c0.1-1.2,0.2-4.7,0-5.8
			c-0.1-0.9-1.5-4.1-2.5-6.1c-0.3-0.6-0.1-1.3,0.4-1.8l5.9-4.8c0.4-0.3,0.9-0.4,1.4-0.3c0.5,0.1,0.8,0.5,1,1c0,0.1,1.5,5.3,2.3,7.2
			c0.6,1.4,2.2,4,3,5.2l2.4,0.1l-0.1-2.5c0-0.5,0.2-0.9,0.5-1.2l2.2-1.7c0.1-0.1,0.2-0.2,0.4-0.2l2.3-0.9c-1.4-1.5-3.4-3.7-4.7-5.8
			c-2.2-3.3-5-9.5-5.1-9.8c-0.1-0.2-0.1-0.4-0.1-0.6v-3.5c0-0.4,0.2-0.8,0.5-1.1s0.8-0.4,1.2-0.3l1.3,0.2l1.3-2.7l0.6-5.2l-1.9-4.3
			l-2.5-1.9c-0.4-0.3-0.6-0.7-0.6-1.2v-3.7c0-0.7,0.5-1.4,1.3-1.5l7.2-0.9v-1.1c0-0.8,0.6-1.4,1.4-1.5l10.5-0.4
			c5.7-2.8,6.3-2.8,6.7-2.8c0.6,0,7.1-0.8,11.1-1.3c0.3,0,0.6,0,0.9,0.2l5.4,3c0.5,0.3,0.8,0.7,0.8,1.3v5.1l3.7,2.9l2.5-1.2l1.1-1.6
			c0.2-0.4,0.7-0.6,1.1-0.7l2.3-0.2l1-0.5l-0.3-0.6c-0.3-0.5-0.2-1.1,0.1-1.6s0.9-0.7,1.5-0.6l4.3,0.9l4.1-3.8l-1-2.2l-3.2-4.7
			c-0.1-0.2-0.2-0.4-0.2-0.6l-0.4-2.6l-2.5-4.8c-0.2-0.4-0.2-0.8-0.1-1.2c0.1-0.4,0.4-0.7,0.8-0.9l3.7-1.5c0.4-0.2,0.9-0.1,1.3,0.1
			c0.4,0.2,0.7,0.6,0.7,1l1,5.5l2.9,3.5l6,4.9c0.3,0.3,0.5,0.6,0.5,1s-0.1,0.8-0.4,1.1l-1.4,1.6l0.7,0.7l3.1,1
			c0.4,0.1,0.7,0.4,0.9,0.7l2,3.7c0.2,0.3,0.2,0.6,0.2,0.9l-0.5,2.8l1.5,1.2c0.4,0.3,0.6,0.8,0.5,1.4l-0.4,2.5l1,1.5
			c0.1,0.2,0.2,0.5,0.2,0.7l0.2,4l2.5,4.9l1.4,0.1c0.6,0.1,1.1,0.4,1.2,1l0.5,1.5l1.4,1l2-1.4c0.2-0.1,0.4-0.2,0.6-0.2l10.3-1.3
			l-0.3-3.4c-0.1-0.6,0.2-1.1,0.7-1.4l5.9-3.3c0.1,0,0.1-0.1,0.2-0.1l4.8-1.7c0.3-0.1,0.7-0.1,1,0l3.6,1.4c2.2-0.3,7.3-1.1,9.1-2
			c1.5-0.7,4.5-1.2,8.7-1.8c1.6-0.2,3.7-0.5,4.7-0.8c-0.2-1-1.1-3.2-2.3-5.4c-0.9-1.7-1.3-3-1.4-3.7L267.7,501.9z"/>
		<path id="Balice" class="st0" d="M588.1,504.9l-7.8-1.7c-0.6-0.1-1.1-0.7-1.1-1.3c0,0-0.3-4.6-0.8-9.9c-1-0.4-3.1-1.2-4.4-1.6
			c-1.5,0.5-7,5.1-11.5,9.2l-20.7,17.8c0.1,1.4,0,4.2-2.4,6c-3,2.2-8.6-1.6-11.1-3.6l-21.8,9.2c-0.5,0.2-1,0.1-1.4-0.1
			c-0.4-0.3-0.7-0.7-0.7-1.2v-11.2L491,488.6c-0.1-0.2-0.1-0.4-0.1-0.6v-19.8c0-0.2,0.1-0.5,0.2-0.7l1.9-3.5l-1.4-0.8
			c-0.5-0.3-0.7-0.7-0.7-1.3v-7.4c0-0.4,0.1-0.7,0.4-1l3.9-4.5l0.6-2.8H495c-0.2,0-0.3,0-0.5-0.1l-4.8-1.7c-0.2-0.1-0.4-0.2-0.6-0.4
			l-4.1-4.3h-2.4c-0.2,0-0.3,0-0.4-0.1l-5.4-1.7c-0.2-0.1-0.4-0.2-0.5-0.3l-3.8-3.2l-4-0.8c-0.1,0-0.2-0.1-0.3-0.1l-13.6-6.2h-4.7
			c-0.2,0-0.3,0-0.5-0.1l-13-4.3l-24.3-6.9c-0.1,0-0.2-0.1-0.3-0.1l-0.5-0.3l-1.6,13.4l6.3,3.6l10.4,4.7c0.4,0.2,0.8,0.6,0.8,1.1
			c0.1,0.5-0.1,1-0.4,1.3l-6.3,6.1c-0.1,0.1-0.3,0.2-0.5,0.3l-6.7,2.7l-2.6,2.4c-0.2,0.2-0.4,0.3-0.7,0.4l-2.4,0.5l-3.7,9.7
			c0.2,0.9,0.9,3,2,5.7c0.2,0.5,0.9,2.1,0,3.4c-0.1,0.1-0.2,0.3-0.3,0.4c1.7,1.4,2.2,4.7,2.4,6.9c0.2,2.9-1.3,8.5-2,10.8l1.6,1.6
			c0.3,0.3,0.4,0.6,0.4,1v3.9c0,0.5-0.3,1-0.7,1.2c-0.4,0.3-1,0.3-1.4,0.1l-2.3-1.1l-1.8,4.6c-0.2,0.4-0.5,0.7-0.9,0.9
			c-0.4,0.1-0.9,0.1-1.2-0.1l-1.8-1.1l-0.8,1.9c-0.1,0.3-0.3,0.5-0.5,0.6l-7.8,5.2c-0.3,0.2-0.6,0.3-1,0.2l-3.8-0.4l-4.4,1.4l-2.2,1
			l1.4,8.2l1.5,5.1l2.9,2.3l5.3,4.6l0.1,0.1l3.7,4.1c0.1,0.2,0.2,0.3,0.3,0.5l2.6,8.3c0,0.1,0.1,0.3,0.1,0.4v5.9
			c0,0.7-0.5,1.3-1.1,1.4l-44,10v5.1c0,0.6-0.4,1.2-1,1.4l-1.6,0.5l0.6,16.3c3.2,1.8,15.8,8.8,19.3,10.1c2.2,0.8,5.9,3.6,10.2,6.8
			c4.5,3.4,9.6,7.2,13.1,8.8c5.9,2.7,15,4.9,19.4,6c0.7,0.2,1.4,0.3,1.8,0.4c3.7,0.9,11.2,5.8,11.5,6.1c0.4,0.3,0.7,0.8,0.7,1.3
			L424,634l1.3-0.2l7.2-7.9c0.4-0.4,1-0.6,1.6-0.4c0.5,0.2,12.2,4.4,16.6,7.3c1.9,1.2,3.9,3,5.8,4.7c2.4,2.2,4.9,4.4,6.5,4.8
			c1.7,0.4,2.9,1.4,4.3,2.4c1.7,1.3,3.4,2.7,6.7,3.4c5.7,1.2,15.1,5.8,17,6.7h1.3l0.6-11.1l-10.1-26.6c-0.2-0.6-0.1-1.2,0.4-1.6
			c0.1-0.1,10.3-9.8,14.4-13.5c2.4-2.2,3.9-8,5.3-13.6c0.7-2.8,1.4-5.7,2.3-8.2c1.7-4.8,1.8-8.2,2-10.9c0.1-1.3,0.1-2.5,0.4-3.5
			c0.7-3,8.8-11,11.3-13.3c0.3-0.3,0.6-0.4,1-0.4h10.6l4.8-1.7c0.2-0.1,0.3-0.1,0.5-0.1h5.5l3.5-0.7l2.1-3.7
			c0.1-0.3,0.4-0.5,0.7-0.6l4.6-2.2c0.1-0.1,0.3-0.1,0.4-0.1l11.5-2l-0.3-3.4c0-0.5,0.2-1,0.5-1.3c0.4-0.3,9.3-7.7,14.1-10.4
			c3.5-1.9,6.3-9.1,7.1-11.7c0.1-0.2,0.1-0.3,0.2-0.5l1.5-1.9c0.4-0.6,2-2.8,6.3-3.9c0.3-0.1,0.7-0.2,1.1-0.2l-0.4-1.3L588.1,504.9z
			"/>
		<path id="Zabierzów" class="st0" d="M598.8,378.6c-0.1,0-0.3,0-0.4,0.1c-0.1,0-0.3,0-0.4,0.1c-0.1,0-0.3,0.1-0.5,0.1c-0.1,0-0.3,0.1-0.4,0.1
			c-0.2,0-0.3,0.1-0.5,0.1c-0.1,0-0.3,0.1-0.4,0.1c-0.2,0.1-0.4,0.1-0.5,0.2c-0.1,0-0.2,0.1-0.4,0.1c-0.4,0.1-0.8,0.3-1.2,0.4
			c-0.1,0-0.2,0.1-0.3,0.1c-0.2,0.1-0.4,0.1-0.6,0.2c-0.1,0.1-0.3,0.1-0.4,0.2c-0.2,0.1-0.4,0.2-0.6,0.2c-0.2,0.1-0.3,0.1-0.5,0.2
			s-0.4,0.2-0.5,0.2c-0.2,0.1-0.3,0.1-0.5,0.2s-0.3,0.2-0.5,0.2c-0.2,0.1-0.3,0.1-0.4,0.2c-0.2,0.1-0.3,0.2-0.5,0.2
			c-0.1,0.1-0.3,0.1-0.4,0.2c-0.2,0.1-0.3,0.2-0.5,0.2c-0.1,0.1-0.3,0.1-0.4,0.2c-0.1,0.1-0.3,0.1-0.4,0.2c-0.1,0.1-0.3,0.1-0.4,0.2
			c-0.1,0.1-0.2,0.1-0.4,0.2c-0.1,0.1-0.3,0.1-0.4,0.2c-0.1,0.1-0.2,0.1-0.3,0.2c-0.2,0.1-0.4,0.2-0.6,0.3c-0.1,0.1-0.2,0.1-0.4,0.1
			H585c-0.1,0-0.2,0-0.2,0l0,0c-0.1,0-0.2,0-0.3,0h-0.1c-0.1,0-0.3-0.1-0.4-0.2c0,0-3.3-2.2-7.8-5c-3.3-2.1-12-2.7-15.6-2.8
			l-10.9,5.9c-0.4,0.2-0.9,0.2-1.3,0c-0.4-0.2-0.7-0.6-0.8-1c-1.1-4.4-3.4-12-5.3-13.9c-1.9-1.9-6.4-2.1-8.1-2h-0.1l0,0l0,0
			c-0.3,0-0.7-0.1-1-0.3l-13.1-9.7h-9.1c-0.4,0-0.7-0.1-1-0.4l-4.1-3.8l-8-6c-0.5-0.4-0.7-1.1-0.5-1.7l7.9-20.4v-3l-4-4l0,0
			l-1.6-1.6h-3.3c-0.3,0-0.6-0.1-0.9-0.3l-3.5-2.7l-8.8-3.1l-3,8.8c0,0.1-0.1,0.2-0.1,0.2l-3.7,6.7c-0.4,0.7-1.2,1-1.9,0.6l-6.1-2.8
			c-0.2-0.1-0.4-0.2-0.5-0.4l-5.2-6.2l-5.7-5.5l-6.8-4.7l-7.2-1h-8.7l-6,1.1l0,0c-0.1,0-0.2,0-0.2,0h-0.1c-0.1,0-0.2,0-0.3-0.1
			l-5-1.5c-0.1,0-0.2-0.1-0.2-0.1l-4.2-2.1l-10.1,3.5c-0.6,1.3-2.2,4.2-5.1,4.8c-0.3,0.1-0.5,0.1-0.8,0.2c-0.1,0-0.1,0-0.2,0
			c-0.3,0.1-0.5,0.2-0.8,0.3c-0.1,0-0.1,0-0.2,0.1c-0.3,0.1-0.5,0.2-0.8,0.3h-0.1c-0.3,0.1-0.6,0.2-0.8,0.3c-0.1,0-0.1,0.1-0.2,0.1
			c-0.3,0.1-0.5,0.2-0.8,0.3h-0.1c-0.2,0.1-0.4,0.2-0.7,0.3h-0.1c-0.2,0.1-0.4,0.2-0.6,0.3c0,0,0,0-0.1,0c-0.2,0.1-0.3,0.2-0.5,0.2
			c0,0.1-0.1,0.2-0.1,0.2l0,0c-0.1,0.1-0.1,0.2-0.2,0.4c0,0,0,0.1-0.1,0.1c-0.1,0.1-0.1,0.2-0.2,0.3l-0.1,0.1
			c-0.1,0.1-0.1,0.2-0.2,0.3c0,0.1-0.1,0.1-0.1,0.2c-0.1,0.1-0.1,0.2-0.2,0.3c0,0.1-0.1,0.1-0.1,0.2c-0.1,0.1-0.2,0.2-0.3,0.3
			c-0.1,0.1-0.1,0.1-0.2,0.2s-0.2,0.2-0.3,0.3l-0.1,0.1c-0.2,0.2-0.3,0.3-0.5,0.5c0,0-0.1,0-0.1,0.1c-0.1,0.1-0.3,0.2-0.4,0.4
			c-0.1,0-0.1,0.1-0.2,0.1c-0.1,0.1-0.2,0.2-0.4,0.3c-0.1,0.1-0.1,0.1-0.2,0.1c-0.1,0.1-0.2,0.2-0.4,0.2c-0.1,0-0.2,0.1-0.2,0.1
			c-0.1,0.1-0.3,0.1-0.4,0.2c-0.1,0-0.2,0.1-0.3,0.1c-0.1,0.1-0.3,0.1-0.5,0.1c-0.1,0-0.1,0-0.2,0.1c-0.2,0.1-0.5,0.1-0.7,0.1
			c-1.6,0.2-3.2,1.2-4.9,2.2c-1.6,0.9-3.1,1.8-4.5,2c-0.9,0.1-1.8,0.4-3,0.8c-1.5,0.5-3.3,1.2-5.8,1.6c-2.6,0.4-5.4-0.5-7.8-1.4
			c-1.9-0.7-3.8-1.3-4.9-1c-1.3,0.3-3.1,2-4.5,3.4c-1.6,1.6-3,3-4.5,3.2c-1.3,0.2-5.5,2.6-8.1,4.2c0,0-0.1,0.1-0.2,0.1
			s-0.2,0.1-0.3,0.2c-0.7,0.3-2.3,1.1-4.2,2.1c0,0-0.1,0-0.1,0.1v12.5h5.3c0.3,0,0.5,0.1,0.7,0.2c0,0,0.1,0,0.1,0.1c0,0,0,0,0.1,0.1
			c0.1,0,0.1,0.1,0.2,0.1l0,0l0,0l0.1,0.1l0.1,0.1l0,0c0,0.1,0.1,0.1,0.1,0.2c0.1,0.2,0.1,0.4,0.1,0.6l0,0l0,0l0,0v0.1
			c0,0.6-0.2,3.6,0.6,6l0,0c0.1,0.5,0.3,0.9,0.5,1.3c0.1,0.1,0.1,0.2,0.2,0.4c1.3,1.9,0.9,3.8,0.3,5.4c-0.1,0.4-0.3,0.7-0.5,1.1
			c-0.5,1.1-0.9,2.1-0.8,3c0,0.2,0,0.4,0.1,0.7c0,0.1,0,0.1,0,0.2c0,0.2,0.1,0.5,0.1,0.7c0,0,0,0,0,0.1c0.1,0.6,0.3,1.4,0.5,2.2l0,0
			c0.1,0.3,0.1,0.5,0.2,0.8l0,0c0.1,0.2,0.1,0.5,0.2,0.7c0,0.1,0,0.1,0,0.2c0,0.2,0.1,0.3,0.1,0.5c0,0.1,0,0.2,0.1,0.2
			c0,0.1,0,0.2,0.1,0.2c0.1,0.4,0.2,0.8,0.3,1.1l0,0c0.1,0.3,0.2,0.5,0.2,0.5c0.2,0.6,0,1.3-0.6,1.7l-2.2,1.4l0.1,0.7l5-1.3
			c0.3-0.1,0.7-0.1,1,0.1c1.7,0.7,4.7,1.7,6.6,1.7c0.3,0,0.5,0,0.7-0.1l0.7-0.2c2.5-0.6,4.7-1.1,8.9,0.3c2.6,0.9,6.1,3.1,9.3,5.1
			c1.7,1.1,3.7,2.3,4.3,2.6c1.4,0.5,5.1,0.7,6.3,0.8c0.7,0,1.3,0.6,1.4,1.3l1.4,12.1l11.4,6l0,0l10.5,5.6l0,0l2.3,1.2l24.2,6.9
			l12.9,4.3h4.8c0.2,0,0.4,0,0.6,0.1l13.8,6.2l4.2,0.8c0.2,0,0.5,0.2,0.7,0.3l3.9,3.3l4.9,1.6h2.8c0.4,0,0.8,0.2,1.1,0.5l4.3,4.5
			l4.2,1.5h2.3c0.1,0,0.3,0,0.4,0.1h0.1c0.1,0.1,0.3,0.1,0.4,0.2l0,0l1.6,1.3l5-1.1l5-2.7c0.1-0.1,0.3-0.1,0.5-0.2l9.3-1.5l11.5-6.2
			l2.3-1.4l5-6l0.8-12.6v-0.1c0.3-1.8,1.2-6.6,3.1-9.3c0.6-0.9,1.4-1.6,2.2-1.9c0.2-0.1,0.5-0.1,0.9-0.2c0.1,0,0.3,0,0.4-0.1
			c0.2,0,0.3,0,0.5-0.1c4.7-0.5,14.5-0.2,15.8-0.2h23.2c0.1,0,0.1,0,0.2,0l14,1.6c0.7-1.4,1.9-4.3,1.9-7.8c0-2.8-1-7.7-2-12.1
			c-0.3-1.6-0.7-3.2-0.9-4.6C599,378.6,598.9,378.6,598.8,378.6z"/>
		<path id="Rząska" class="st0" d="M585.7,404.3h-23.2c-5.2-0.1-13.7-0.2-16.3,0.3c-0.2,0-0.3,0.1-0.4,0.1c-1,0.3-2.6,4.5-3.3,8.8l-0.9,13
			c0,0.3-0.1,0.6-0.3,0.8l-4.9,5.8l3,7.6l4.1-1.6c0.2-0.1,0.5-0.1,0.7-0.1l11.7,1.3c0.5,0.1,0.9,0.3,1.1,0.8c1,1.7,4.1,6.5,7.3,7.8
			c4.4,1.7,9.9,4.5,10.1,4.6c0.5,0.2,0.8,0.8,0.8,1.3v5.8c0.8,1,2.3,3.6,1.5,7.3c-0.3,1.5-0.7,2.6-1.1,3.6c-0.7,2-0.9,2.8-0.3,4.1
			c0.3,0.7,0.8,1.4,1.4,2.3c1.6,2.4,3.7,5.7,4.2,10.7c0.5,4.9,0.9,9.7,1,11.8l6.8,1.5h0.1l6.3,1.9c0.5,0.1,0.8,0.5,1,1l0.8,2.7
			c2.7,0.1,5.5,0.6,6.9,1l3.8-6c0.2-0.3,0.5-0.6,0.9-0.7s0.8,0,1.1,0.2c0.4,0.3,1.8,1,2.9,0.8c0.5-0.2,1.5-2.3,2-4.1
			c0.2-0.6,0.8-1.1,1.4-1.1h1.8l0.9-1.3c0.3-0.5,0.9-0.8,1.5-0.6c0,0,1.3,0.2,2.2-0.6c1.2-1,3.7-4.1,4.6-5.2
			c0.4-0.5,1.2-0.7,1.8-0.4c0,0,1.1,0.6,2.6,0.9c0.7-0.2,2.6-2.2,4-4.2c0.2-0.3,0.6-0.5,1-0.6s0.8,0,1.1,0.3c0,0,2.3,1.7,5.3,1.9
			h0.1c1.6,0,4.9-2,7.5-3.5c2.4-1.4,4.6-2.8,6.3-3.2c2.7-0.7,9.7-5,12.2-6.6c0.4-0.3,0.9-0.3,1.4-0.1l12.5,5.7l8.6,0.2
			c0.2,0,0.3,0,0.5,0.1l12.8,4.6l20-34.8l-1.4-3.1l-3.8,2.1c-0.3,0.2-0.8,0.2-1.1,0.1c-0.4-0.1-0.7-0.4-0.9-0.7l-3.7-7.2
			c-0.1-0.2-0.2-0.4-0.2-0.7v-4.8L669,410.6l-11.1,3.9c-0.2,0.1-0.3,0.1-0.5,0.1h-12.5l-2.4,5.4c-0.2,0.4-0.5,0.7-0.9,0.8
			c-0.4,0.1-0.8,0.1-1.2-0.2c-5.2-3.2-11.9-6.6-13.5-6.5c-3.2,0.2-11.1-2.8-11.9-3.1c-0.2-0.1-0.3-0.1-0.4-0.3c0,0-3-2.6-6-3.1
			c-3.2-0.6-7.3-1.7-8.1-1.9L585.7,404.3z"/>
		<path id="Szczyglice" class="st0" d="M563.4,451.6c-4-1.6-7.3-6.6-8.4-8.4l-10.6-1.2l-5.1,2c-0.4,0.1-0.8,0.1-1.1,0c-0.4-0.2-0.6-0.4-0.8-0.8
			l-3.3-8.2l-1.1,0.7l-11.8,6.3c-0.1,0.1-0.3,0.1-0.5,0.2l-9.3,1.5l-5,2.7c-0.1,0.1-0.2,0.1-0.4,0.1l-5.9,1.3c-0.1,0-0.2,0-0.3,0
			c-0.3,0-0.7-0.1-0.9-0.3l-0.3-0.3L498,450c-0.1,0.2-0.2,0.5-0.3,0.6l-3.8,4.4v6l1.9,1.1c0.7,0.4,0.9,1.3,0.6,2l-2.4,4.5v19.1
			l13.4,27.9c0.1,0.2,0.1,0.4,0.1,0.6v9.3l20.5-8.7c0.5-0.2,1.1-0.1,1.5,0.2c3.3,2.7,7.3,4.7,8.2,4.1c1.8-1.3,1.2-3.8,1.2-3.9
			c-0.1-0.5,0.1-1.1,0.5-1.5l21.3-18.3c11.4-10.5,13.1-10.1,13.9-9.9c0.9,0.2,2.4,0.7,3.6,1.2c-0.5-4.1-2.3-6.9-3.7-9.1
			c-0.6-0.9-1.2-1.8-1.6-2.7c-1.1-2.4-0.5-4.3,0.2-6.3c0.3-0.9,0.7-2,1-3.3c0.7-3.3-1.1-5.2-1.1-5.2c-0.3-0.3-0.4-0.6-0.4-1v-5.4
			C570.7,454.9,566.7,452.9,563.4,451.6z"/>
		<path id="Rudawa" class="st0" d="M186.4,365.5c0.3,0,0.5,0,0.8-0.1c0.6-0.1,1.2-0.1,1.7-0.1c0.4,0,0.7-0.1,1.1-0.1c0.6-0.1,1.3-0.1,1.9-0.1
			c0.2,0,0.3,0,0.5,0c1.3-0.1,2.6-0.2,3.7-0.2l0,0c0.4,0,0.8,0,1.1,0c0.1,0,0.1,0,0.2,0c0.3,0,0.5,0,0.8,0c0.1,0,0.2,0,0.3,0
			c0.2,0,0.3,0,0.5,0s0.4,0,0.5,0c0,0,0,0,0.1,0c1.1,0,1.9,0.1,2.5,0.2c1.3,0.3,2.6,0.9,4.1,1.6c2.1,1,5,2.3,5.9,1.5
			c1.5-1.2,3.4-1,5-0.8c0.6,0.1,1.7,0.2,2,0c0,0,0.1-0.2,0.1-0.7c0-0.2,0-0.5,0-0.7l0,0c0-0.3-0.1-0.6-0.1-0.9l0,0
			c0-0.3-0.1-0.7-0.2-1V364c-0.1-0.3-0.1-0.7-0.2-1.1v-0.1c-0.1-0.3-0.1-0.7-0.2-1.1c0-0.1,0-0.2-0.1-0.3c-0.1-0.4-0.2-0.8-0.2-1.2
			c0-0.1,0-0.1,0-0.2c-0.3-1.4-0.6-2.9-1-4.4c-1-4.7-2.1-9.5-2.3-12.6c-0.4-5,1.2-9.1,1.9-10.8c-1.3-2-1.3-2.7-1.3-2.9
			c0-0.4-0.6-3.2-1.1-5.6c-0.1-0.7,0.2-1.4,0.9-1.7l1.6-0.6l-1.4-6.3l-3.7-5.2c-0.1-0.2-0.2-0.4-0.2-0.6l-1.3-6.2
			c-0.3-1.1-4.6-14.8-7.7-19.6c-1.3-2.1-1-3.7-0.5-4.6c1.5-2.7,6.3-2.9,7.2-2.9c3.2,0.1,8.7-0.2,10.2-1.9
			c2.7-2.9,14.9-11.9,17.9-13.7c0.3-0.2,0.6-0.3,0.9-0.5c0.1,0,0.1-0.1,0.2-0.1c0.3-0.1,0.6-0.3,0.9-0.4c0.1,0,0.1,0,0.2-0.1
			c0.6-0.3,1.3-0.5,1.8-0.7c0.1,0,0.1,0,0.2,0c0.3-0.1,0.6-0.2,0.8-0.2h0.1c0.3-0.1,0.5-0.1,0.7-0.2l0,0c0.2-0.1,0.5-0.1,0.7-0.1
			h0.1c0.2,0,0.3-0.1,0.5-0.1l0,0l2.4-2l-5.8-5.8c-0.3-0.3-0.5-0.8-0.4-1.3l1-6.5l-3-2.3c-0.4-0.3-0.6-0.7-0.6-1.2v-2.3l-5.5-6.1
			c-0.1-0.1-0.2-0.2-0.2-0.4l-2-4.3c-0.1-0.1-0.1-0.3-0.1-0.4l-0.7-4.6h-0.9c-0.5,0-0.9-0.2-1.2-0.6l-3.3-4.8
			c-0.2-0.2-0.3-0.5-0.3-0.8v-4h-0.7c0,0,0,0-0.1,0H223c-0.1,0-0.1,0-0.2,0c0,0,0,0-0.1,0s-12.6-4.1-15.4-5c-1-0.3-3.9,0.6-6.6,1.4
			c-3.3,1-7.4,2.3-11.7,2.8c-7,0.7-12.2-2.2-14.1-3.6l-10.4,6.2c-0.1,0.1-0.3,0.1-0.4,0.2H164c-0.1,0-0.1,0-0.2,0
			c-0.1,0-0.1,0-0.2,0h-0.1c-0.1,0-0.3-0.1-0.4-0.1c0,0,0,0-0.1,0c-0.1-0.1-0.3-0.2-0.4-0.3l-3-3.2l-3.4-1.4
			c-0.2-0.1-0.3-0.2-0.5-0.3l-2.9-2.8l-3.7-1.7l-3.6,0.8c-0.3,0.1-0.6,0-0.9-0.1l-3-1.4l-2.1,1.3c-0.4,0.3-0.9,0.3-1.4,0.1l-1.9-0.9
			l-2.5,0.7l-0.9,4.8c-0.1,0.7-0.7,1.2-1.4,1.2h-4.1l-1.9,2.1l1.4,2.1c0.1,0.2,0.2,0.3,0.2,0.5l0.8,4.1l1.5,2.4
			c0.1,0.2,0.2,0.5,0.2,0.8v10.1l1.4,1.5c0.1,0.1,0.1,0.2,0.2,0.2c0.2,0.2,0.2,0.5,0.2,0.8l0,0l0,0l-0.2,4.8v3.4l1.8,2.8l2.6-2
			c0.4-0.3,1-0.4,1.5-0.2s0.8,0.8,0.8,1.3v1.6h1.1c0.6,0,1.1,0.3,1.3,0.9l1.5,3.3l2.2,0.7c0.6,0.2,1,0.8,1,1.4v1.7l3,2.6
			c0.5,0.4,0.6,1.2,0.3,1.8l-1.1,2.1c-0.3,0.5-0.8,0.8-1.3,0.8h-0.7l0.2,1.4c0.1,0.4,0,0.7-0.3,1.1l-1,1.5l0.5,0.9l1.9,0.9
			c0.7,0.3,1,1.1,0.8,1.9l-1.1,2.8c-0.1,0.3-0.3,0.5-0.6,0.7l-3.4,2.1c0.4,5.4,0.6,13.8-2,15.5c-1.6,1-3.2,1-4.3,0.7l-4.7,8.6
			c0,0.1-0.1,0.1-0.1,0.2l-8.8,12l6.7,4.4c0.4,0.2,0.6,0.6,0.7,1.1c0,0.4-0.1,0.9-0.4,1.2l-7.7,7.5l-3.4,13.3l0,0l0,0v0.1
			c0,0,0,0.1-0.1,0.1c0,0.1-0.1,0.1-0.1,0.1s0,0.1-0.1,0.1c0,0.1-0.1,0.1-0.1,0.1s0,0-0.1,0.1c-0.1,0-0.1,0.1-0.2,0.1c0,0,0,0-0.1,0
			l0,0c-0.1,0-0.1,0.1-0.2,0.1c0,0,0,0-0.1,0c0,0,0,0-0.1,0l0,0c-0.1,0-0.1,0-0.2,0l0,0h-0.1l0,0l0,0c-0.1,0-0.3,0-0.4-0.1h-0.1
			l-7.4-2.4l0,0l-3.2-1h-5.8c8,8.4,7.2,9.8,6.7,10.6c0,0,0,0.1-0.1,0.1c-0.4,0.7-1.8,2-11,0.8v4.2c0,0.4-0.1,0.7-0.3,0.9l9.2,3.5
			c0.3,0.1,0.6,0.3,0.7,0.6l1.2,2l6.5,1.2c0.2,0,0.4,0.1,0.5,0.2c0.1,0,0.1,0.1,0.1,0.1c0.1,0.1,0.2,0.2,0.3,0.3
			c0,0,0.1,0.1,0.3,0.3l0,0c0.1,0.1,0.2,0.2,0.3,0.3l0.1,0.1c0.1,0.1,0.2,0.2,0.3,0.3c0.1,0,0.1,0.1,0.2,0.2s0.3,0.2,0.4,0.3
			c0.1,0.1,0.2,0.1,0.2,0.2c0.2,0.1,0.3,0.2,0.5,0.4c0.1,0.1,0.2,0.1,0.3,0.2c0.2,0.1,0.3,0.2,0.5,0.3c0.3,0.2,0.6,0.3,1,0.5
			c0.5,0.2,1,0.4,1.5,0.4c0.5,0.1,1.1,0.1,1.7,0.1c1.2,0,2.4-0.2,3.6-0.3c1.3-0.2,2.5-0.3,3.6-0.3c2.5,0,3.4,1.3,4,2.2
			c0.4,0.6,0.6,0.9,1.3,1.1c2.3,0.5,4.1,2.9,5.7,4.9c0.8,1,1.5,2,2.1,2.6c0.2,0.1,0.5,0.2,1,0.2c2.5,0.2,8.7-0.6,14.5-1.8
			c0.6-0.1,1.1-0.2,1.7-0.3l0,0c0.1,0,0.2,0,0.3,0l0,0c0.1,0,0.3,0,0.4,0.1h0.1c0.1,0.1,0.3,0.1,0.4,0.2c0.3,0.3,0.5,0.7,0.5,1.1
			v1.5c2-0.1,3.8-0.4,4.3-0.7c0.1-0.2,0.2-0.7,0.3-1.1c0.2-1.2,0.6-3.5,3.1-3.8c1.4-0.1,4-0.4,5.7-0.5c0-0.5,0.2-1,0.5-1.5
			c0.4-0.7,1.4-1.4,3.3-1.4c0.4,0,0.9,0,1.7-0.1h0.1l0,0c1.3-0.1,3.1-0.3,5-0.4C185,365.6,185.7,365.5,186.4,365.5z"/>
		<path id="Burów" class="st0" d="M341.3,381.1c-0.3-0.2-0.6-0.6-0.7-1l-0.7-3.3c-0.1-0.6,0.1-1.2,0.6-1.5l2.1-1.4c-0.1-0.5-0.3-1-0.5-1.7
			c-0.1,0-0.3,0.1-0.4,0.1s-0.1,0-0.2,0c-0.2,0-0.4,0.1-0.6,0.1h-0.1c-0.2,0-0.5,0.1-0.7,0.2l0,0c-1.6,0.3-3.3,0.7-4.9,1.2
			c0,0,0,0-0.1,0c-0.3,0.1-0.5,0.1-0.8,0.2h-0.1c-0.2,0.1-0.5,0.1-0.7,0.2c-0.1,0-0.1,0-0.2,0.1c-0.2,0.1-0.4,0.1-0.6,0.2
			c-0.1,0-0.1,0-0.2,0.1c-0.2,0.1-0.4,0.1-0.6,0.2c-0.1,0-0.2,0.1-0.2,0.1c-0.2,0.1-0.4,0.1-0.5,0.2c-0.1,0-0.2,0.1-0.3,0.1
			c-0.2,0.1-0.3,0.1-0.5,0.2c-0.1,0-0.2,0.1-0.3,0.1c-0.2,0.1-0.3,0.1-0.5,0.2c-0.1,0-0.2,0.1-0.3,0.1c-0.2,0.1-0.3,0.1-0.5,0.2
			c-0.1,0-0.2,0.1-0.3,0.1c-0.1,0.1-0.3,0.1-0.4,0.2c-0.1,0-0.2,0.1-0.3,0.1c-0.1,0.1-0.3,0.1-0.4,0.2c-0.1,0-0.2,0.1-0.3,0.1
			c-0.1,0.1-0.3,0.1-0.4,0.2c-0.1,0-0.2,0.1-0.3,0.1c-0.1,0.1-0.2,0.1-0.4,0.2c-0.1,0-0.2,0.1-0.3,0.1c-0.1,0.1-0.2,0.1-0.3,0.2
			c-0.1,0-0.2,0.1-0.3,0.1c-0.1,0.1-0.2,0.1-0.3,0.2c-0.1,0-0.2,0.1-0.2,0.1c-0.1,0.1-0.2,0.1-0.3,0.2c-0.1,0.1-0.2,0.1-0.2,0.2
			c-0.1,0.1-0.2,0.1-0.3,0.2c-0.1,0.1-0.1,0.1-0.2,0.2s-0.2,0.1-0.2,0.2c-0.1,0.1-0.1,0.1-0.2,0.2s-0.1,0.1-0.2,0.2
			s-0.1,0.1-0.2,0.2s-0.1,0.1-0.2,0.2c0,0.1-0.1,0.1-0.1,0.2c-0.1,0.1-0.1,0.1-0.2,0.2l-0.1,0.1c-0.1,0.1-0.1,0.2-0.1,0.2l-0.1,0.1
			c-0.1,0.1-0.1,0.2-0.2,0.4c-1.6,4.4,3.4,10.5,7,14.9c0.7,0.8,1.3,1.6,1.9,2.3c2.8,3.6,3.2,6.9,3.7,10.4c0.2,1.5,0.4,3,0.8,4.7
			c0.6,2.7,0.6,4.9,0.6,6.6c0,2.1,0,3.3,0.9,4.6c0.2,0.2,0.3,0.4,0.4,0.7c0,0.1,0.1,0.2,0.1,0.2c0.1,0.2,0.1,0.3,0.2,0.5
			c0,0.1,0.1,0.2,0.1,0.3c0,0.1,0.1,0.3,0.1,0.4s0.1,0.2,0.1,0.3c0,0.1,0.1,0.3,0.1,0.4s0,0.2,0,0.3c0,0.1,0,0.3,0,0.4s0,0.2,0,0.3
			c0,0.2,0,0.3,0,0.5c0,0.1,0,0.2,0,0.3c0,0.2,0,0.3,0,0.5c0,0.1,0,0.2,0,0.2c0,0.2,0,0.5-0.1,0.7c0,0,0,0,0,0.1
			c0,0.2-0.1,0.4-0.1,0.6c0,0.1,0,0.1,0,0.2c0,0.2-0.1,0.3-0.1,0.4s0,0.1,0,0.2s-0.1,0.3-0.1,0.4s0,0.1,0,0.2s-0.1,0.2-0.1,0.4
			c0,0.1,0,0.1,0,0.1c0,0.1-0.1,0.2-0.1,0.4v0.1c0,0.2-0.1,0.3-0.1,0.4l1,5.3v0.1l1.1,10.9c0,0.3,0.5,3.3,0,5.1
			c-0.2,0.8,0,4,0.2,6.7l1.3,4.4c0,0.1,0.1,0.3,0.1,0.4v3.9c0,0.2,0,0.4-0.1,0.6c4.3-3.3,4.8-2.8,5.6-2.1c0.6,0.6,0.8,1.6,0.7,3.1
			l2.9,0.1c0.4,0,0.8,0.2,1,0.5c0.3,0.3,0.4,0.7,0.3,1.1l-1.1,10.1h1.8c0.4,0,0.8,0.2,1.1,0.5c0.3,0.3,0.4,0.8,0.3,1.2l-1.1,6.3
			c-0.1,0.3-0.2,0.6-0.4,0.8l0.7,0.5l10,0.8c0.8,0.1,1.3,0.7,1.3,1.5v6.3h13.1c0.5,0,1,0.3,1.3,0.8l1.4,2.6l3.6-1.2
			c0.2-0.1,0.4-0.1,0.6-0.1l3.6,0.4l7-4.7l1.3-3.1c0.2-0.4,0.5-0.7,0.9-0.8c0.4-0.1,0.8-0.1,1.2,0.1l1.8,1.1l1.7-4.5
			c0.1-0.4,0.4-0.7,0.8-0.8c0.4-0.2,0.8-0.1,1.2,0l1.6,0.8v-1l-1.7-1.7c-0.4-0.4-0.5-0.9-0.4-1.5c0.6-2.1,2.3-8.1,2.1-10.6
			c-0.1-1.2-0.2-2.1-0.4-2.8c-0.1,0.3-0.3,0.6-0.7,0.8c-0.3,0.2-0.9,0.5-1.8,0.3c-1.8-0.5-3.4-3.1-3.5-4.8c-0.1-1.1,0.4-2,1.4-2.4
			c0.7-0.3,1.4-0.3,2.2-0.2c0.3,0,0.8,0,1.1,0c0-0.1-0.1-0.3-0.2-0.5c-1.5-3.7-2.2-6.4-2.2-6.5c-0.1-0.3-0.1-0.6,0.1-0.9l4.1-10.9
			c0.2-0.5,0.6-0.8,1.1-0.9l2.8-0.6l2.5-2.3c0.1-0.1,0.3-0.2,0.4-0.3l6.7-2.7l4.5-4.4l-8.5-3.9c0,0-0.1,0-0.1-0.1l-7.2-4.1
			c-0.5-0.3-0.8-0.9-0.7-1.4l1.8-15.5l-21.7-11.5c-0.4-0.2-0.7-0.6-0.8-1.1l-1.4-11.6c-1.6-0.1-4.4-0.4-5.9-0.9
			c-0.9-0.3-2.4-1.2-5-2.9c-2.9-1.8-6.4-4.1-8.7-4.8c-3.4-1.1-4.9-0.8-7.2-0.2l-0.7,0.2c-0.5,0.1-1.1,0.2-1.7,0.1
			c-2.4-0.1-5.3-1.1-6.7-1.6c-0.1,0-0.2-0.1-0.3-0.1l-6,1.6C342.1,381.4,341.6,381.3,341.3,381.1z"/>
		<path id="Brzezinka" class="st0" d="M218.8,147l-2.1,2.4v11c0,0.2,0,0.3-0.1,0.5l-2.2,6.2l4.4,11.9c0,0.1,0.1,0.2,0.1,0.3l1.5,11.7l2.7,5.2
			c0.1,0.2,0.2,0.4,0.2,0.7v4.3l1.2,3.5c0.1,0.2,0.1,0.3,0.1,0.5v2.2h0.7c0.8,0,1.5,0.7,1.5,1.5v5l2.6,3.8h1.4
			c0.7,0,1.3,0.5,1.5,1.3l0.8,5.7l1.8,3.9l5.7,6.3c0.2,0.3,0.4,0.6,0.4,1v2.1l3.1,2.4c0.4,0.3,0.6,0.9,0.6,1.4l-1,6.7l6.4,6.4
			c0.3,0.3,0.4,0.7,0.4,1.1c0,0.4-0.2,0.8-0.5,1.1l-3.9,3.3c-0.3,0.5-0.5,3.4-0.3,5.9c0,0.1,0,0.3,0,0.4l-1.4,5.9l5,1
			c0.3,0.1,0.5,0.2,0.7,0.4l2.4,2.2h13.8c0.6,0,1.2,0.4,1.4,1c0,0,0.9,2.8,2.1,5.7c1,2.3,2.5,3.6,2.9,3.9l0.1,0.1l2.2,1.5
			c0.3,0.2,0.5,0.5,0.6,0.8l1.2,4.4c8.8,7.7,9,8.1,9.1,8.4c0.2,0.4,0.5,1-0.8,3.4l0.8,1.9c0.1,0.3,0.1,0.6,0.1,0.8l-1.2,6.7H295
			c0,0,0.1,0,0.2,0h0.1c0.1,0,0.1,0,0.2,0s0.1,0,0.2,0s0.1,0,0.2,0s0.2,0,0.3,0c0.1,0,0.1,0,0.2,0s0.2,0,0.4-0.1c0.1,0,0.1,0,0.2,0
			s0.3,0,0.5-0.1h0.1c0.2,0,0.4-0.1,0.5-0.1c0,0,0,0,0.1,0c1.5-0.2,3.4-0.5,5.1-0.8c0.1,0,0.1,0,0.2,0c0.2,0,0.3,0,0.4-0.1
			c0.2,0,0.4-0.1,0.5-0.1h0.1c0.1,0,0.2,0,0.4-0.1l0.4-5.4c0-1.1-0.1-1.6-0.2-1.8c-0.1-0.1-0.2-0.2-0.3-0.2
			c-0.1-0.1-0.1-0.1-0.2-0.2c-0.5-0.4-1.2-0.9-1.8-1.3c-0.6-0.4-1.2-0.8-1.6-1.2c-1.6-1.3-2.1-3.5-1.6-6.4c0-0.2,0.1-0.4,0.1-0.7
			l0,0c0-1.7-0.6-4.3-0.9-5.3l-2.1-4.5l-1.5-3c-0.1-0.1-0.1-0.3-0.1-0.4l-0.8-5.8c-0.5-0.9-2.2-4.2-2.8-5.8c-0.7-1.7,0-4.2,0.4-5.4
			l-2.5-5.1c-0.6-1.2-0.4-2.6-0.2-3.9c0.1-0.7,0.2-1.5,0.2-2.2c0-0.2,0-0.4,0-0.6c0-0.1,0-0.2-0.1-0.4c0-0.1,0-0.2-0.1-0.3
			c0-0.1-0.1-0.3-0.1-0.4c0-0.1,0-0.2-0.1-0.3c0-0.1-0.1-0.3-0.1-0.4c0-0.1-0.1-0.3-0.1-0.4c0-0.1-0.1-0.2-0.1-0.2
			c-0.1-0.2-0.1-0.4-0.2-0.6l0,0c-0.2-0.5-0.3-0.9-0.5-1.2c0-0.1-0.1-0.2-0.1-0.3c0,0,0-0.1-0.1-0.1c-0.3-0.6-0.1-1.4,0.5-1.8
			l3.6-2.6l0.1-2.4c-0.8-0.3-1.8-0.8-2.3-1.7c-0.6-1-0.3-2.2-0.1-3.2c0.1-0.4,0.2-0.9,0.3-1.3c-0.8,0.4-2,0.7-3.1-0.3
			c-0.9-0.8-1.1-1.6-1.1-2.2c0-0.1,0-0.2,0-0.2c0.1-0.8,0.7-1.4,1.1-1.8l0.3-1.5c0.1-0.5,0.4-0.9,0.9-1.1l9.3-4l-7.5-5.4H284
			c-0.8,0-1.5-0.7-1.5-1.5v-1.9l-1.4-1.8c-0.1-0.1-0.2-0.2-0.2-0.4l-2.6-6.3v-0.1l-2-6.1c-0.7-0.3-1.9-0.9-3.3-1.4
			c-2.3-0.9-3.2-4.7-3.6-6.8c-0.2,0-0.5-0.1-0.8-0.2c-2-0.4-5.1-1.2-6.6-2.3c-2-1.5-1.4-4.3-0.1-6.5l-1.7-2
			c-0.2-0.2-0.3-0.5-0.3-0.8l-0.2-3c0-0.2,0-0.4,0.1-0.6l0.7-1.9L259,175c-0.2-0.2-0.3-0.5-0.4-0.8l-0.9-4.5h-1
			c-0.6,0-1.1-0.4-1.4-0.9l-1.7-4.3c-0.1-0.3-0.1-0.7,0-1l1.7-5c0.1-0.3,0.3-0.5,0.5-0.7l5.8-4.6l0.2-4.3c0-0.2,0-0.3,0.1-0.5
			l1.6-4.1h-4.6c-0.1,0-0.2,0-0.4,0l-39-9.9l1.2,2.7c0.1,0.2,0.1,0.5,0.1,0.8l-1.2,8.7C219.1,146.5,219,146.8,218.8,147z"/>
		<path id="Nielepice" class="st0" d="M103,442.6c0.5-0.7,1.2-1.4,2.1-1.9c1.9-1.1,3.9-0.2,4.9,0.5c0.4,0.3,0.6,0.8,0.6,1.3c0,0,0,0.1,0,0.2l0,0
			l0,0c0,0.2-0.1,0.5-0.1,0.9c0.5,0,1,0,1.7,0c5.4-0.1,16.1-0.3,26-0.3c3.7,0,7.3,0,10.4,0.1h0.1c0.5,0,1,0,1.5,0h0.1
			c0.4,0,0.8,0,1.2,0c0.1,0,0.2,0,0.3,0c0.4,0,0.8,0,1.2,0c0.1,0,0.1,0,0.2,0c0.3,0,0.6,0,0.9,0c0.1,0,0.2,0,0.3,0
			c0.3,0,0.7,0,1,0.1c8.7,0.5,21.9,1.1,27.4,1.4c0.4,0,0.7,0,1,0V428c0-0.7,0.4-1.2,1.1-1.4c0.6-0.2,1.3,0.1,1.7,0.6l3.7,5.8
			l4.6-3.7c0.5-0.4,1.1-0.4,1.6-0.1l3.5,2c0.5,0.3,0.7,0.7,0.8,1.3v5.6l9.3-7.6c0.3-0.3,0.7-0.4,1.2-0.3c0.3,0,1.3,0.1,1.9-0.4
			c0.4-0.3,0.5-0.8,0.5-1.6c0-2.8,1.5-4,2.3-4.8c0.2-0.2,0.5-0.4,0.6-0.5c0,0,0-0.1-0.1-0.4c-0.5-1.1-1.6-2.4-2.5-3.5
			c-1.5-1.9-2.7-3.3-1.7-4.7c0.5-0.6,1.3-1.6,1.7-2.1l1-9.1l0.5-6l0,0l0.9-10.7l-6.4-1l-0.1,2.1c0,0.7-0.5,1.2-1.2,1.4l-3.5,0.7
			c-0.3,0.1-0.6,0-0.9-0.1l-4.9-2.3l-3.3-0.8c-0.6-0.2-1.1-0.7-1.1-1.3l-1.2-17.1l0,0c-0.6,0-1.3,0.1-2,0.1c-0.1,0-0.3,0-0.4,0
			c-0.7,0.1-1.3,0.1-2,0.2c-0.1,0-0.1,0-0.2,0c-1.4,0.1-2.7,0.2-4,0.4c-0.1,0-0.2,0-0.3,0c-0.3,0-0.5,0-0.8,0.1
			c-2.9,0.3-5.3,0.5-6.3,0.5c-0.6,0-0.8,0.1-0.8,0.2v0.1c0,0.2,0,0.4,0.1,0.5c0.2,0.4,0.1,0.9-0.1,1.3c-0.2,0.4-0.7,0.6-1.1,0.7
			c0,0-5,0.4-7.1,0.7c-0.2,0-0.3,0-0.5,1.4c-0.1,0.8-0.3,1.6-0.8,2.3c-1.1,1.6-5,2-8.2,2c-0.8,0-1.5-0.7-1.5-1.5v-1.2
			c-6.5,1.3-15.8,2.8-18,0.8c-0.9-0.8-1.7-1.8-2.5-3c-1.3-1.7-2.7-3.6-4-3.9c-1.9-0.4-2.6-1.6-3.1-2.3c-0.5-0.7-0.6-0.9-1.5-0.9
			c-0.9,0-2.1,0.2-3.2,0.3c-0.3,0-0.6,0.1-0.9,0.1c-0.1,0-0.3,0-0.4,0c-0.2,0-0.4,0-0.6,0.1c-0.1,0-0.3,0-0.4,0c-0.2,0-0.4,0-0.6,0
			s-0.3,0-0.5,0s-0.4,0-0.6,0s-0.3,0-0.5,0s-0.4,0-0.6,0c-0.1,0-0.3,0-0.4,0c-0.2,0-0.4,0-0.6-0.1c-0.1,0-0.3,0-0.4-0.1
			c-0.2,0-0.5-0.1-0.7-0.2c-0.1,0-0.2,0-0.3-0.1l0,0l-1.4,1.3c0.1,1.3,0.3,3.9-0.1,5.4c-0.2,0.6-0.6,1.2-1.2,1.5
			c-1.1,0.6-2.7,0.4-4,0.1v1.9c0,0.4-0.2,0.9-0.5,1.1l-4.7,3.9c-0.4,0.4-1.1,0.4-1.6,0.2c-1.6-0.8-3.5-1.6-4.6-2
			c-0.2,1-0.3,2.6-0.3,4.2c0,0.8-0.6,1.4-1.4,1.5c-0.3,0-6.6,0.2-9.2,0c-1,0.6-3.3,4.8-5,9.3c-0.2,0.5-0.6,0.9-1.2,0.9
			c-0.5,0.1-1.1-0.2-1.4-0.6l-1.2-1.7c-1.5,0.1-4.7,0.2-6.9-0.6c-2.1-0.7-4.3-3.6-5.6-5.6l-1.7,1.9c-0.1,0.1-0.1,0.2-0.2,0.2
			c-0.2,0.3-0.4,0.6-0.6,0.8c-0.1,0.1-0.2,0.3-0.3,0.4c-0.2,0.3-0.4,0.5-0.6,0.8c-0.1,0.1-0.1,0.1-0.2,0.2c-0.2,0.3-0.4,0.5-0.6,0.8
			c-0.1,0.1-0.1,0.2-0.2,0.3c-0.2,0.2-0.4,0.5-0.6,0.7l-0.1,0.1c-0.2,0.2-0.4,0.5-0.6,0.7c-0.1,0.1-0.1,0.1-0.2,0.2
			c-0.2,0.2-0.3,0.4-0.5,0.5c0,0,0,0-0.1,0.1c-0.2,0.2-0.3,0.4-0.5,0.5l-0.1,0.1c-0.1,0.2-0.3,0.3-0.4,0.4l0,0
			c-0.1,0.1-0.3,0.3-0.4,0.4c0,0,0,0-0.1,0.1s-0.2,0.2-0.4,0.3l0,0c-0.1,0.1-0.2,0.2-0.3,0.3c0,0,0,0-0.1,0
			c-0.1,0.1-0.2,0.1-0.3,0.2l0,0c-0.1,0.1-0.2,0.1-0.3,0.1l0,0c-0.1,0-0.2,0.1-0.2,0.1l0,0c-0.1,0-0.2,0-0.2,0.1l0,0
			c-0.1,0-0.1,0-0.2,0l0,0l0,0c-0.1,0-0.2,0-0.3,0l0,0c-0.2-0.1-0.4-0.2-0.6-0.3c-1.2-0.7-3.2-4.2-4.3-6.2c-0.3-0.5-0.2-1.1,0.1-1.6
			c0.7-0.9,1.3-1.8,1.8-2.6c-0.5,0.5-1.1,1-1.7,1.4c-0.2,0.2-0.4,0.3-0.6,0.4c-0.1,0-0.1,0.1-0.2,0.1c-0.1,0.1-0.3,0.1-0.4,0.2
			c-0.1,0-0.1,0.1-0.2,0.1c-0.1,0.1-0.2,0.1-0.4,0.1c-0.1,0-0.2,0-0.2,0.1c-0.1,0-0.2,0.1-0.3,0.1c0,0,0,0-0.1,0
			c0.2,0.2,0.3,0.6,0.3,0.9c0,0.5-0.2,1-0.7,1.3l-5.2,3.5L22.8,412c-0.1,0-0.1,0.1-0.2,0.1l-22,12.8l15,16.7l2.5-0.3
			c0.4-0.1,0.8,0.1,1.1,0.3l2.1,1.8l15.1-1.2l11-7.6c0.3-0.2,0.7-0.3,1.1-0.2c3.5,0.6,9.4,1.4,10.7,1.3c1.2-0.1,1.9-1.3,2-1.3
			c0.2-0.4,0.6-0.6,1.1-0.7s12.3-1.5,16.4-1.8c5.1-0.3,18.2,5.7,18.3,5.8c0.3,0.1,0.7,0.3,1,0.6l0,0c0,0,0.1,0,0.1,0.1
			c0.3,0.2,0.5,0.4,0.8,0.6l0.1,0.1c0.3,0.2,0.6,0.4,0.9,0.7l0,0C101,440.6,102.2,441.8,103,442.6z"/>
		<path id="Kleszczów" class="st0" d="M219.1,385.3l-0.9,11c0.2,0.1,0.4,0.3,0.6,0.4c1.1,0.9,1.9,2.2,1.8,3.9l0,0c0,0.1,0,0.3,0,0.4s0,0.1,0,0.2
			s0,0.2-0.1,0.3c0,0.2-0.1,0.4-0.2,0.5c-0.5,1.5-0.8,2.6-1,3.4l3.2,1.3c0.5,0.2,0.8,0.6,0.9,1.1l0.8,3.9c0.6,0.6,1.2,1.2,1.5,1.4
			h9.8l2.8-1.3c-1.1-6.1,0.4-7,0.9-7.3c0.6-0.3,1.3-0.4,1.9-0.1c0.3,0.2,0.6,0.4,0.8,0.7c0.7,0.9,1.1,2.4,1.4,3.7l5.1,4.6
			c0.3,0.3,0.5,0.7,0.5,1.1v6.1h5.9c0.8,0,1.5,0.7,1.5,1.5v24.4c1.1,0.4,2.2,0.6,2.8,0.7c0.1,0,0.2,0,0.3,0c1.4-0.2,2.3,0.8,3.1,1.8
			c0.3,0.3,0.8,0.9,1.1,1.1c0.4-1.1,0.1-4.9-0.7-8.6c-0.1-0.5,0.1-1,0.4-1.4c0.4-0.4,0.9-0.5,1.4-0.3c1.8,0.6,3.9,1.2,5.2,1.5
			c-0.1-0.3-0.2-0.6-0.3-0.8c-0.2-0.5-0.1-1,0.1-1.4c0.3-0.4,0.7-0.7,1.2-0.7h4.5l2.6-5.7c0.3-0.7,1.1-1,1.8-0.8l6.1,2.2
			c0.6,0.2,1,0.9,1,1.5c0,0-0.4,3.7,0,6.1c0.4,2.6,0.9,5.7,0.9,5.7c0,0.1,0,0.1,0,0.2v2.9c5.4,2.2,10.7,3.7,12.8,3.7
			c0.1,0,0.2,0,0.3,0c0.2,0,0.3,0,0.4-0.1c0.8-0.9,1.4-4.1,1.6-7.4c0.1-1.1,0.2-2.2,0.2-3.3c0-0.7,0.6-1.3,1.3-1.4
			c1-0.1,2-0.4,2.6-0.7c-0.8-1.7-1-2.9-1-3c0-0.2,0-0.4,0-0.6l1.2-4.3c0.2-0.7,0.8-1.1,1.6-1.1c0.1,0,11.2,1.1,16.8,1.3
			c4.1,0.2,7.4-0.6,8.8-1c0.2-0.8,0.5-1.9,0.6-3c0-0.1,0-0.2,0-0.3c0-0.1,0-0.2,0-0.2c0-0.8,0-1.7-0.3-2.4c-0.1-0.3-0.2-0.5-0.4-0.7
			c-1.5-2.1-1.5-4.1-1.4-6.3c0-1.6,0-3.5-0.5-5.9c-0.4-1.8-0.6-3.5-0.8-5c-0.4-3.3-0.7-6-3.1-9c-0.5-0.7-1.2-1.5-1.8-2.3
			c-4.1-5-9.7-11.8-7.5-17.8c1.1-3,5.3-5.7,12.9-8c0.5-0.1,0.9-0.3,1.4-0.4c0.1,0,0.1,0,0.2,0c0.4-0.1,0.8-0.2,1.2-0.3
			c0.1,0,0.1,0,0.2-0.1c0.4-0.1,0.8-0.2,1.2-0.3c0.1,0,0.1,0,0.2-0.1c0.4-0.1,0.7-0.2,1.1-0.3c0.1,0,0.1,0,0.2,0
			c0.3-0.1,0.7-0.2,1-0.2c0.1,0,0.1,0,0.2,0c0.3-0.1,0.6-0.1,0.8-0.2c0.1,0,0.1,0,0.2,0c0.2-0.1,0.5-0.1,0.7-0.1
			c0.1,0,0.2,0,0.3-0.1c0.2,0,0.3-0.1,0.5-0.1h0.1v-0.1c0-0.1,0-0.2-0.1-0.3c-0.1-0.3-0.1-0.5-0.1-0.7c0-0.1,0-0.2,0-0.3
			c0-0.2-0.1-0.5-0.1-0.7c0-0.1,0-0.2,0-0.3c0-0.3-0.1-0.6-0.1-0.9c-0.1-1.6,0.5-3.1,1.1-4.4c0.8-1.8,1.1-2.7,0.5-3.6
			c-0.2-0.3-0.4-0.6-0.5-1l0,0l-5.9,2.4c-0.6,0.3-5.9,2.7-12.4,3.4c-6.4,0.7-15-3.3-16.5-3.9l-4.6-0.8c-1.1,0.6-4,2.3-5.6,3.9
			c-1.9,1.9-4,1.9-5.4,1.4l-4.9,2.3l-5.5,3.8c-0.2,0.2-0.5,0.3-0.8,0.3l-20.7,0.7c-1.3,0.4-8,2.4-11.8,2.4c-2,0-2.8-0.5-3.5-1.3
			c-0.1-0.2-0.4-0.5-2.9-0.4c-0.3,0-0.6,0-0.9,0c-0.1,0-0.1,0-0.2,0c-0.3,0-0.6,0-1,0c0,0-0.1,0-0.2,0c-0.7,0-1.5-0.1-2.3-0.2
			c-0.1,0-0.1,0-0.2,0c-0.4,0-0.8-0.1-1.2-0.2c-0.1,0-0.1,0-0.2,0c-0.4-0.1-0.8-0.1-1.2-0.2c0,0,0,0-0.1,0c-0.4-0.1-0.9-0.1-1.3-0.2
			c-0.1,0-0.2,0-0.2,0c-0.4-0.1-0.8-0.1-1.3-0.2c-0.1,0-0.1,0-0.2,0c-0.4-0.1-0.8-0.1-1.2-0.2c-0.1,0-0.1,0-0.2,0
			c-0.4-0.1-0.8-0.2-1.2-0.2c-0.1,0-0.2,0-0.3-0.1c-0.4-0.1-0.8-0.2-1.2-0.2c-0.1,0-0.1,0-0.2,0c-0.3-0.1-0.7-0.1-1-0.2
			c-0.1,0-0.1,0-0.2,0c-0.3-0.1-0.7-0.1-1-0.2c-0.1,0-0.2,0-0.3-0.1c-0.3-0.1-0.6-0.1-0.9-0.2h-0.1c-0.3-0.1-0.5-0.1-0.8-0.2
			c-0.1,0-0.1,0-0.2,0c-0.2-0.1-0.5-0.1-0.7-0.2h-0.1c-0.1,0.1-0.1,0.2-0.2,0.4c0,0.1-0.1,0.1-0.1,0.2c-0.1,0.2-0.3,0.4-0.5,0.5
			c-1.2,1-2.8,0.9-4.3,0.7c-1.1-0.1-2.3-0.3-2.8,0.2c-2.3,1.9-5.7,0.4-9-1.1c-1.3-0.6-2.6-1.2-3.6-1.4c-0.1,0-0.2,0-0.4-0.1
			c-0.7-0.1-2-0.1-4.7,0l1.2,16l2.4,0.6c0.1,0,0.2,0.1,0.3,0.1l4.6,2.2l1.9-0.4l0.1-2.5c0-0.4,0.2-0.8,0.5-1.1
			c0.3-0.3,0.7-0.4,1.2-0.3l9.4,1.5C218.7,383.9,219.2,384.6,219.1,385.3z"/>
		<path id="Niegoszowice" class="st0" d="M305.8,318.5c-0.1-0.2-0.2-0.5-0.2-0.7c0,0,0,0,0-0.1c-0.2-0.7-0.4-1.3-0.6-1.7c-2.3,0.4-5.1,0.8-7.2,1.2
			h-0.1c-0.2,0-0.4,0.1-0.5,0.1s-0.1,0-0.2,0c-0.2,0-0.3,0-0.4,0.1c-0.1,0-0.1,0-0.2,0s-0.2,0-0.3,0c-0.1,0-0.1,0-0.2,0
			s-0.2,0-0.3,0h-0.1c-0.1,0-0.1,0-0.2,0h-0.1c-0.1,0-0.1,0-0.2,0h-11.9c-0.4,0-0.8-0.2-1.1-0.5c-0.3-0.3-0.4-0.8-0.3-1.2l1.5-8
			l-0.9-2.2c-0.2-0.4-0.2-0.9,0.1-1.3c0.3-0.5,0.6-1,0.7-1.4c-1.3-1.2-5.1-4.6-8.5-7.6c-0.2-0.2-0.4-0.4-0.4-0.7l-1.2-4.3l-2-1.2
			c-0.1-0.1-2.5-1.8-4-5.2c-0.9-2-1.5-3.9-1.9-5h-13.3c-0.4,0-0.7-0.1-1-0.4l-2.5-2.3l-6.1-1.2c-0.4-0.1-0.7-0.3-0.9-0.6
			c-0.2-0.3-0.3-0.7-0.2-1.1l1.7-7.2l0,0c0-0.3,0-0.7-0.1-1.1c0,0,0,0,0-0.1c0-0.4,0-0.8,0-1.2v-0.1c0-0.4,0-0.8,0-1.2v-0.1
			c0-0.4,0.1-0.8,0.1-1.2v-0.1c0,0,0,0-0.1,0c-0.3,0.1-0.6,0.2-0.9,0.3h-0.1c-0.3,0.1-0.6,0.2-0.9,0.3h-0.1
			c-0.3,0.1-0.6,0.3-0.9,0.4c0,0,0,0-0.1,0c-0.3,0.2-0.6,0.3-0.9,0.5c-2.7,1.7-14.8,10.6-17.3,13.2c-3,3.2-11.5,2.9-12.4,2.9
			c-1.6,0-4.1,0.5-4.5,1.4c-0.2,0.4,0.2,1.2,0.4,1.6c3.3,5.3,7.8,19.7,8,20.3v0.1l1.2,6l3.7,5.2c0.1,0.2,0.2,0.3,0.2,0.5l1.7,7.8
			c0.2,0.7-0.2,1.4-0.9,1.7l-1.7,0.6c0.4,2,0.8,4.1,0.9,4.8c0.1,0.3,0.4,0.9,0.8,1.5c0.1,0.2,0.3,0.4,0.4,0.6
			c0.3,0.5,0.4,1.1,0.1,1.5c0,0-2.4,4.5-2,10.1c0.2,2.9,1.3,7.6,2.3,12.2c0.2,0.8,0.3,1.6,0.5,2.3c0.1,0.2,0.1,0.5,0.1,0.7
			c0.1,0.3,0.1,0.5,0.2,0.8c0.1,0.3,0.1,0.6,0.2,1c0,0.2,0.1,0.4,0.1,0.5c0.1,0.5,0.2,0.9,0.3,1.4c0,0.1,0,0.2,0.1,0.3
			c0.1,0.4,0.1,0.7,0.2,1c0,0.1,0,0.2,0.1,0.4c0.1,0.3,0.1,0.7,0.1,1c0,0.1,0,0.2,0,0.3v0.1l2.5,0.7h4.1h0.1c0.3,0,0.5,0,0.7-0.1
			h0.1c0.3,0,0.5-0.1,0.7-0.1l0,0c0.3-0.1,0.6-0.1,0.9-0.2c1.7-0.4,3.3-0.8,4.5-1.1l-1.3-4c-0.1-0.4-0.1-0.9,0.2-1.3
			s0.7-0.6,1.2-0.6h5.8l12.5-6c0.1,0,0.1-0.1,0.2-0.1l8.8-2.7l3.2-2.8c0.3-0.2,0.6-0.4,1-0.4h6.4l13.4-6.4c0.1-0.1,0.3-0.1,0.4-0.1
			l5.9-0.9c0.1,0,0.1,0,0.2,0l19.5-0.6l0,0c-0.1-0.2-0.2-0.4-0.2-0.5c-0.1-0.2-0.2-0.4-0.2-0.6c-0.1-0.2-0.2-0.5-0.3-0.8
			c-0.1-0.2-0.1-0.3-0.2-0.5c-0.1-0.4-0.3-0.8-0.4-1.2c0-0.1-0.1-0.2-0.1-0.3c-0.2-0.5-0.3-1-0.5-1.6c-0.6-1.7-1.2-3.6-1.8-5
			c-0.1-0.3-0.2-0.5-0.3-0.8c0-0.1-0.1-0.2-0.1-0.3c-0.1-0.2-0.2-0.4-0.2-0.6c0-0.1-0.1-0.2-0.1-0.3c-0.1-0.2-0.2-0.4-0.3-0.6
			c0-0.1-0.1-0.2-0.1-0.3c-0.1-0.3-0.2-0.6-0.3-0.9c0-0.1-0.1-0.2-0.1-0.3c-0.1-0.2-0.2-0.4-0.2-0.6c0-0.1-0.1-0.2-0.1-0.4
			c-0.1-0.2-0.1-0.4-0.2-0.6c0-0.1-0.1-0.2-0.1-0.4c-0.1-0.3-0.2-0.5-0.3-0.8V320c-0.1-0.3-0.2-0.6-0.3-0.9c0-0.1-0.1-0.2-0.1-0.3
			c-0.1-0.2-0.2-0.4-0.2-0.7C305.9,318.6,305.8,318.6,305.8,318.5z"/>
		<path id="Kochanów" class="st0" d="M326.7,341.4c-0.2,0.1-0.3,0.2-0.5,0.2c-0.1,0-0.2,0.1-0.3,0.1c-0.2,0.1-0.4,0.1-0.5,0.2
			c-0.1,0-0.2,0.1-0.3,0.1c-0.2,0.1-0.5,0.1-0.7,0.1h-0.1c-0.3,0-0.6,0.1-0.9,0.1c-0.1,0-0.2,0-0.3,0c-0.1,0-0.3,0-0.4,0h-0.1
			c-0.3,0-0.6,0-1,0h-0.1c-0.4,0-0.7-0.1-1-0.1c-0.1,0-0.2,0-0.3-0.1c-0.2,0-0.5-0.1-0.7-0.1c-0.1,0-0.2,0-0.4-0.1
			c-0.2-0.1-0.4-0.1-0.7-0.2c-0.1,0-0.2,0-0.3-0.1c-0.3-0.1-0.6-0.2-0.8-0.2c-0.1,0-0.1,0-0.2-0.1c-0.2-0.1-0.4-0.1-0.5-0.2
			c-0.1,0-0.2-0.1-0.2-0.1c-0.1-0.1-0.3-0.1-0.4-0.2c-0.1,0-0.1-0.1-0.2-0.1h-0.1l-21.9,0.7l-5.6,0.8l-13.5,6.4
			c-0.2,0.1-0.4,0.1-0.6,0.1h-6.2l-3.1,2.7c-0.2,0.1-0.3,0.2-0.5,0.3l-9,2.8l-12.7,6c-0.2,0.1-0.4,0.1-0.6,0.1h-4.1l1.1,3.5
			c0.1,0.4,0.1,0.8-0.1,1.1c-0.2,0.3-0.5,0.6-0.9,0.7c-0.1,0-0.7,0.2-1.7,0.5l0,0c-0.2,0.1-0.5,0.1-0.7,0.2h-0.1
			c-0.2,0.1-0.5,0.1-0.7,0.2c-0.1,0-0.1,0-0.2,0c-0.2,0.1-0.5,0.1-0.8,0.2c-0.1,0-0.2,0-0.3,0.1c-0.3,0.1-0.5,0.1-0.8,0.2
			c0,0,0,0-0.1,0c1.9,0.3,3.8,0.6,5.4,0.8h0.1c0.2,0,0.4,0,0.6,0.1c0.1,0,0.2,0,0.4,0s0.4,0,0.6,0c0.2,0,0.4,0,0.5,0s0.2,0,0.3,0
			c0.2,0,0.5,0,0.7,0c3.4-0.1,4.4,0.4,5.3,1.5l0.1,0.1c0,0,0.2,0.1,1.1,0.1c2.8,0,7.9-1.4,10.1-2c0.6-0.2,1-0.3,1-0.3
			c0.1,0,0.3-0.1,0.4-0.1l20.4-0.7l5.3-3.7c0.1,0,0.1-0.1,0.2-0.1l5.6-2.6c0.4-0.2,1-0.2,1.4,0.1c0.2,0.1,1.3,0.6,2.5-0.7
			c2.3-2.3,6.6-4.5,6.8-4.6c0.3-0.1,0.6-0.2,0.9-0.1l5.3,0.9c0.1,0,0.3,0.1,0.4,0.1s9,4.4,15.1,3.8c6.2-0.6,11.4-3.1,11.4-3.1h0.1
			l6.2-2.5c-0.3-1.6-0.4-3.1-0.4-4.3h-5.2c-0.8,0-1.5-0.7-1.5-1.5v-12.3c-0.1,0-0.1,0.1-0.2,0.1c-0.2,0.1-0.3,0.2-0.5,0.3
			c-0.2,0.1-0.3,0.2-0.5,0.3c-0.2,0.1-0.4,0.2-0.6,0.4c-0.1,0.1-0.2,0.1-0.3,0.2c-0.2,0.1-0.4,0.3-0.6,0.4c-0.1,0-0.1,0.1-0.2,0.1
			c-0.2,0.1-0.4,0.3-0.6,0.4c-0.1,0-0.1,0.1-0.2,0.1c-0.2,0.1-0.4,0.2-0.5,0.4c-0.1,0-0.1,0.1-0.2,0.1c-0.1,0.1-0.3,0.2-0.4,0.3
			c-0.1,0.1-0.2,0.1-0.2,0.2c-0.1,0.1-0.2,0.1-0.3,0.2c-0.2,0.1-0.3,0.3-0.4,0.4c-0.2,0.2-0.4,0.4-0.6,0.6c-0.1,0.1-0.2,0.1-0.2,0.2
			c-0.2,0.1-0.3,0.2-0.5,0.3C326.8,341.4,326.8,341.4,326.7,341.4z"/>
		<path id="Więckowice" class="st0" d="M355,303c0.2,0.6,2.3,0.7,4.5,0.3c0.1-0.3,0.2-0.7,0.5-1c0.3-0.4,1-1,2.2-1c1.8,0,3,1.4,3.6,2.2l29.4,5.6l0,0
			c0.1-0.1,0.3-0.1,0.4-0.2c0,0,0.1,0,0.1-0.1c0.2-0.1,0.4-0.2,0.6-0.3h0.1c0.2-0.1,0.5-0.2,0.7-0.3c0,0,0.1,0,0.1-0.1
			c0.3-0.1,0.6-0.2,0.8-0.4c0.1,0,0.1,0,0.2-0.1c0.3-0.1,0.6-0.2,0.9-0.4l0,0c0.3-0.1,0.6-0.2,0.9-0.3c0.1,0,0.1,0,0.2-0.1
			c0.3-0.1,0.6-0.2,0.9-0.3c0.1,0,0.1,0,0.2,0c0.3-0.1,0.6-0.2,0.9-0.2c2.2-0.5,3.2-3.6,3.3-3.6c0.1-0.4,0.5-0.8,0.9-0.9L418,298
			c0.4-0.1,0.8-0.1,1.1,0.1l4.7,2.3l3,0.9V287c0-1.9-0.3-7.4-1.4-10.1c-1.3-2.9-0.8-7.6-0.4-9.9l-5.2-1.4c-0.6-0.2-1.1-0.8-1.1-1.4
			v-8.5l-5.5-1.6c-0.8-0.2-1.2-1-1-1.8c0-0.1,0.2-0.8,0.2-1.9c0,0,0,0,0-0.1c0-1.1-0.2-2.6-0.8-4.1v-0.1c-0.1-0.3-0.2-0.5-0.4-0.8
			c0-0.1-0.1-0.1-0.1-0.2c-0.1-0.2-0.3-0.5-0.4-0.7c0-0.1-0.1-0.2-0.1-0.2c-0.2-0.3-0.4-0.6-0.6-1c-3.6-4.8-14.9-9.2-15-9.3
			c-0.6-0.2-0.9-0.8-0.9-1.4v-3.1c-1.7-1.1-5.7-3.7-7-5.3c-1.1-1.3-4.2-3.2-5.3-3.8c-0.4-0.2-0.7-0.7-0.7-1.2s0.2-1,0.6-1.3l3.3-2.6
			v-1.9c0-0.2,0-0.4,0.1-0.6l1.5-3.5l-2.4-4.7l-2.9,1.8c-0.2,0.1-0.3,0.2-0.5,0.2l-5.5,0.9l-7.7,4l3.9,9.5c0.2,0.4,0.1,0.9-0.1,1.3
			c-0.2,0.4-0.6,0.7-1.1,0.7c-0.1,0-11.8,1.3-16.3,2.7c-4.7,1.5-6.5,2-6.6,2c-0.3,0.1-0.6,0.1-0.9,0c-0.1,0-12.9-4.8-18.8-4.9
			c-1,0-1.7,0.2-2.2,0.8c-1.8,1.9-1.4,6.6-1.2,8.4v0.5c0.1,1.4-0.7,3.5-2.1,6.4c-0.2,0.4-0.4,0.9-0.6,1.3c-0.5,1.1-1.2,2.6-1.4,3.2
			c0.6,1,3.6,3.9,6.1,6.2c0.3,0.3,0.5,0.7,0.5,1.2c0,0-0.1,2.2,0,3.5c0.7,1.2,5.4,6.3,10.2,11.2c0.7,0.7,1.4,1.4,2.1,2.1
			c0.3,0.3,0.5,0.8,0.4,1.3c-0.1,0.3-0.1,1.4,0.3,2.1c0.7,0.9,8.1,7.7,13.2,12.2c0.3,0.3,0.5,0.6,0.5,1l0.5,9.4
			c1.1,0.4,2.9,1.1,3.9,2.4c0.1,0.2,0.3,0.4,0.4,0.6c1,1.8-0.6,3.4-1.6,4.4C355.5,301.8,354.8,302.5,355,303z"/>
		<path id="Kobylany" class="st0" d="M216.2,102.1c0.1,0.2,0.2,0.5,0.2,0.7v22.6l1.3,5.3l40.9,10.3h6.6c0.5,0,0.9,0.2,1.2,0.6s0.3,0.9,0.2,1.4
			l-2.3,5.9l-0.2,4.8c0,0.4-0.2,0.8-0.6,1.1l-6,4.7l-1.4,4.1l1.2,2.9h1.2c0.7,0,1.3,0.5,1.4,1.2l1,5.2l1.9,1.9
			c0.4,0.4,0.5,1,0.3,1.6l-1,2.5l0.2,2.2l2.1,2.5c0.4,0.5,0.5,1.3,0.1,1.8c-1,1.3-1.6,3.1-1.2,3.4c1.2,0.9,5,1.8,7.1,2.1
			c0.7,0.1,1.2,0.6,1.2,1.3c0.3,2.6,1.2,5.3,1.9,5.5c2.2,0.9,3.9,1.7,4,1.8c0.4,0.2,0.6,0.5,0.7,0.9l2.2,6.7l2.5,6l1.6,2
			c0.2,0.3,0.3,0.6,0.3,0.9v0.9h4.8c0.3,0,0.6,0.1,0.9,0.3l10,7.2c0.4,0.3,0.7,0.8,0.6,1.4s-0.4,1-0.9,1.2l-11,4.7l-0.3,1.4l0,0
			c0.5-0.2,1-0.4,1.6-0.2s1.1,0.7,1.4,1.5c0.5,1.4,0.2,2.8-0.1,3.9c-0.1,0.4-0.2,0.9-0.2,1.1c0.1,0.1,0.1,0.1,0.2,0.2h0.1
			c0.1,0,0.2,0.1,0.3,0.1c0.1,0,0.1,0,0.2,0.1c0.1,0,0.2,0.1,0.3,0.1c0.1,0,0.3,0.1,0.4,0.1h0.1c0.7,0.1,1.3,0.8,1.2,1.5l-0.2,4.3
			c0,0.4-0.2,0.8-0.6,1.1l-3.2,2.3c0.4,1,1,2.6,1.3,4c0.1,0.5,0.1,0.9,0.1,1.4c0,1-0.1,1.9-0.3,2.7c-0.1,0.9-0.3,1.8-0.1,2.1
			l2.8,5.6c0.2,0.4,0.2,0.8,0.1,1.2c-0.4,1.1-0.9,3.1-0.6,3.9c0.6,1.5,2.5,5.2,2.7,5.6v0.1c0.1,0.1,0.1,0.3,0.2,0.5l0.8,5.8l1.4,2.8
			l2.2,4.6c0,0.1,0.1,0.1,0.1,0.2c0.1,0.4,1.2,4.2,1,6.9c0,0.2,0,0.4-0.1,0.5c-0.3,1.7-0.1,3.1,0.6,3.6c0.4,0.3,0.9,0.6,1.4,1
			c1,0.6,2,1.4,2.8,2.1l0,0l0,0c0.1,0.1,0.2,0.2,0.4,0.5c0.3,0.6,0.5,1.4,0.5,2.7c0.1,1.5,0,3.7-0.4,7.1c0.1,0.2,0.2,0.5,0.3,0.8
			l0,0c0.1,0.2,0.1,0.3,0.2,0.5v0.1c0.1,0.2,0.1,0.4,0.2,0.6v0.1c0.1,0.2,0.1,0.4,0.2,0.6c0,0.1,0,0.1,0.1,0.2
			c0.1,0.2,0.1,0.4,0.2,0.6v0.1c0.1,0.4,0.3,0.8,0.4,1.3c0,0.1,0.1,0.2,0.1,0.3c0.1,0.2,0.1,0.3,0.2,0.5s0.1,0.3,0.2,0.5
			c0.1,0.1,0.1,0.3,0.2,0.4c0.1,0.2,0.1,0.4,0.2,0.5s0.1,0.3,0.2,0.4c0.1,0.2,0.1,0.4,0.2,0.5s0.1,0.3,0.2,0.4
			c0.1,0.2,0.1,0.4,0.2,0.5s0.1,0.3,0.2,0.4c0.1,0.2,0.1,0.4,0.2,0.5c0,0.1,0.1,0.2,0.1,0.4c0.1,0.2,0.2,0.4,0.2,0.6
			c0,0.1,0.1,0.2,0.1,0.3c0.1,0.3,0.2,0.5,0.3,0.8c0.7,1.6,1.3,3.5,1.9,5.3c0.8,2.4,2,6,2.8,6.5c1.9,1,7.5,2.4,9.6,0.3
			c0.2-0.2,0.4-0.4,0.6-0.5c0.1-0.1,0.2-0.2,0.3-0.2c0.1-0.1,0.3-0.2,0.4-0.4c0.2-0.1,0.3-0.2,0.5-0.4c0.1-0.1,0.2-0.2,0.3-0.2
			c4-2.7,10.7-6,11.8-6.6c0.6-0.4,2.2-1.3,3.9-2.3c0.1-0.1,0.2-0.1,0.3-0.2l0,0c1.8-1,3.8-2,5-2.1c0.5-0.1,1.9-1.5,2.8-2.4
			c1.8-1.8,3.8-3.8,6-4.2c0.7-0.1,1.5-0.1,2.3,0c1.3,0.2,2.7,0.7,4.2,1.1c1.7,0.6,3.4,1.1,4.9,1.3c0.5,0,1,0,1.5,0
			c2.2-0.3,3.8-0.9,5.3-1.4c1.3-0.5,2.4-0.9,3.7-1c0.8-0.1,2-0.8,3.3-1.6c1.8-1.1,3.8-2.3,6-2.6c0.2,0,0.3-0.1,0.5-0.1
			c0.1,0,0.1,0,0.2-0.1c0.1,0,0.2-0.1,0.3-0.1c0.1,0,0.1-0.1,0.2-0.1s0.1-0.1,0.2-0.1c0.9-0.5,1.7-1.4,2.3-2.2l-28.4-5.4
			c-0.3-0.1-0.6-0.2-0.8-0.5c-0.1-0.1-0.1-0.2-0.2-0.3c-0.2-0.4-0.7-1-1.1-1.2c0.1,0.7-0.4,1.4-1.1,1.6c-1.3,0.3-7.9,1.8-9.1-2.1
			c-0.7-2.3,1-4,2.1-5.1c0.3-0.3,0.8-0.8,1-1.1c-0.6-0.8-2.2-1.4-3.2-1.6c-0.7-0.1-1.2-0.7-1.2-1.4l-0.5-9.8
			c-4.1-3.6-12.5-11.2-13.3-12.4c-0.7-1.1-0.8-2.5-0.8-3.3c-12.4-12.4-12.6-13.8-12.7-14.4c0-0.3-0.1-0.6-0.1-0.9s0-0.6,0-0.9
			c0-0.6,0-1.2,0-1.6c-5-4.4-6.2-6.3-6.5-7.2c-0.1-0.3-0.1-0.5-0.1-0.6c0-0.8,0.5-1.8,1.8-4.6c0.9-1.9,2.5-5.3,2.5-6.3v-0.5
			c-0.2-2.3-0.7-7.8,2-10.6c1.1-1.2,2.6-1.8,4.4-1.7c5.8,0.1,16.8,4.1,19.3,5c0.8-0.2,2.7-0.8,6-1.8c3.7-1.1,11.3-2.2,15-2.6l-3.7-9
			c-0.3-0.7,0-1.5,0.7-1.9l9.1-4.7c0.1-0.1,0.3-0.1,0.4-0.1l5.4-0.9l3-1.8l-10.2-30c-0.1-0.2-0.1-0.3-0.1-0.5l0.3-29.2l-1.8-0.2
			l-3.6,3.1c-0.3,0.2-0.6,0.4-0.9,0.4l-4.3,0.2c-0.7,0-1.3-0.4-1.5-1l-1.6-4.9c-0.2-0.5-0.1-1,0.3-1.4c0.1-0.1,1.1-1.8,1.2-7.8
			c0.2-6.3,0-17.9,0-20.3l-3.3-4.8l-3,3.9c-0.4,0.5-1,0.7-1.6,0.5l-2.5-0.7l-1.7,3.2c-0.4,0.7-1.2,1-1.9,0.7l-4.9-2.2H337
			c-0.5,0-1-0.2-1.2-0.7l-2.1-3.2l-15.4,1.9l-11.3,2c-0.2,0-0.4,0-0.6,0l-9.4-2.6l-9.7-1.3c-0.1,0-0.3-0.1-0.4-0.1l-14.9-6.9
			l-6.7,1.5c-0.7,0.2-1.4-0.2-1.7-0.8l-2.1-4.5l-8.5-5.6c-0.4-0.3-0.7-0.7-0.7-1.2V73.7c-1.8-2.6-6-8.3-7.6-9.8
			c-2.5-2.1-2.5-7.1-2.5-8.6l-9-18.2c0-0.1,0-0.1-0.1-0.2c-1-2.8-2.9-7.7-4-9c-0.9-1.1-8.4-5-14.8-8.1c-0.3-0.2-0.6-0.4-0.7-0.8
			c-0.1-0.3-3-7.4-3.7-11.7c-0.4-2.8-4.2-2.7-4.3-2.7c-0.6,0-1.1-0.3-1.4-0.8l-2.3-4.4l-2.8,3v6l2,5.7c1.6,0.9,5.4,3.2,6.1,5.9
			c0.3,1.3,0.1,3.4-0.2,6c-0.4,3.3-0.9,7.8,0.1,9.6c1.7,3.1,4.4,10.7,5.3,13.3c2.1,0.3,6.9,1.3,8.4,5c1.8,4.2,0.3,7.2-0.1,7.8
			L212,79.4l-1.8,9.9l1.6,5.8L216.2,102.1z"/>
		<path id="Bolechowice" class="st0" d="M531.2,230.7l9-1.3l-1.4-5.6c-0.1-0.2-0.1-0.5,0-0.7l0.6-2.3h-0.1h-4.5c-0.3,0-0.6-0.1-0.8-0.2l-6.5-4.2
			c-0.2-0.1-0.4-0.3-0.5-0.6c-0.1-0.2-0.2-0.5-0.2-0.7l0.2-9.8l-1.3-7.7c0-0.1,0-0.2,0-0.2v-7.9l-0.1-0.1l-5.9-3.6
			c-0.2-0.1-0.3-0.3-0.4-0.4c-0.1-0.1-0.2-0.3-0.2-0.4l-2.1-7.3h-0.1v-0.1l-2.9-0.2c-0.2,0-0.4-0.1-0.6-0.1l-8-3.9
			c-0.1,0-0.2-0.1-0.3-0.2c-0.2-0.2-0.4-0.5-0.4-0.9c-0.1-0.5,0.1-1,0.5-1.3l3.4-2.8l-4.1-4.9c-0.2-0.3-0.3-0.6-0.3-0.9v-1.7
			l-0.2-0.1l0,0l-9.9-5.4c-0.1-0.1-0.2-0.1-0.2-0.2l-6.7-7.4c-0.2-0.3-0.4-0.6-0.4-1v-4.7l-3.8-4.4c-0.3-0.3-0.4-0.8-0.3-1.3
			l0.8-3.6l-1.2-2.6L467,114.4l-17.2-13.6l-7.1-5.2l-0.2-0.1l0,0l-6.7-2c-0.2-0.1-0.4-0.2-0.5-0.3l-7.9-6.8l0.1,0.2l-0.3-0.3
			l3.1,8.2c0,0.1,0.1,0.3,0.1,0.4l0.6,7.8l4.2,2.9c0.2,0.2,0.4,0.4,0.5,0.7l0.9,2.3l0.2-0.1l0.1,0.1l4.1-1.8
			c0.3-0.1,0.6-0.1,0.9-0.1c0.2,0.1,0.5,0.2,0.6,0.4l3.9,5c0.4,0.6,0.4,1.3-0.1,1.9c-0.4,0.5-1.1,0.6-1.7,0.4l-3.5-2.1l0,0l-0.2-0.1
			l-1.8,1.4l-1.6,2.6c-0.1,0.1-0.2,0.2-0.3,0.3l-1.6,1.4c0.8,0.6,1.8,1.5,3,2.8c2.2,2.5,2,4.5,1.7,5.5c-0.4,1.4-1.6,2.5-3.3,3
			c-0.5,0.4-1,2.8-1.1,5.4h0.2c0,0,0,0,0,0.1h2c0.1,0,0.3,0,0.4,0c0.3,0.1,0.5,0.3,0.7,0.6c0.3,0.4,0.3,1,0,1.5l-2.1,3.8l0.7,2
			c0.2,0.6,0,1.4-0.6,1.7c-0.2,0.1-2.3,1.3-6.2,0.9c-0.6-0.1-1.1-0.2-1.7-0.4c-1.8-0.7-3.7-1.9-5.1-2.9v0.1c-0.1,0-0.1-0.1-0.2-0.1
			v6.1l-0.9,17c0,0.1,0,0.2,0,0.3l-5.6,20.5l24.5,15.6l0.2,0.1c0.4,0.2,0.6,0.6,0.7,1.1c0.1,0.4-0.1,0.9-0.4,1.2l-7,7.2l2.6,1.7
			l15.6,10.4c0.4,0.3,0.7,0.9,0.5,1.5l-2.6,12l0.1,0.1l0,0l2.2,2c0.3,0.3,0.4,0.6,0.4,1v8.5c0,0.6-0.4,1.1-0.9,1.4
			c-0.6,0.2-1.2,0.1-1.6-0.4l-1.3-1.4h-2.6c-0.2,0-0.4,0-0.6-0.1l-7.1-3.1l-3-1h-2.4l-2.6,0.8c-0.3,0.1-0.6,0.1-0.9,0l-1.8-0.5
			l-1.1,1.7c-0.2,0.2-0.4,0.4-0.6,0.5l-3.5,1.5h-0.1l-5.5,1.9l-3.5,1.9c0,0.2,0,0.3,0,0.5h0.1l0,0l5.3,1.6c0.1,0,0.3,0.1,0.4,0.2
			c0.4,0.3,0.6,0.7,0.6,1.2v8.4h0.1l0,0l5.4,1.4c0.3,0.1,0.5,0.2,0.7,0.4c0.3,0.3,0.4,0.8,0.3,1.3c-0.4,1.8-1.2,7-0.1,9.5l0,0
			c1.6,3.7,1.7,10.9,1.7,11.2v14.5l0,0v0.1l4.4-0.8c0.1,0,0.2,0,0.3,0h8.9c0.1,0,0.1,0,0.2,0l7.6,1.1c0.2,0,0.4,0.1,0.6,0.2l7.2,5
			c0.1,0,0.1,0.1,0.2,0.1l5.9,5.6l0.1,0.1l5,6l4.5,2.1l3-5.4l3.4-10.1c0.1-0.4,0.4-0.7,0.8-0.8c0.4-0.2,0.8-0.2,1.1-0.1l10.4,3.7
			c0.1,0.1,0.3,0.1,0.4,0.2l3.3,2.5h3.4c0.4,0,0.8,0.2,1,0.4l0.2,0.2l4.7-20.8v-5.5c0-0.4,0.2-0.8,0.5-1.1c0,0,2-1.7,1.7-3.6
			c-0.4-2.7-2.1-8.7-2.1-8.7c-0.1-0.5,0-1.1,0.4-1.5s1-0.5,1.5-0.3c0.1,0,6.5,2,9.5-1.7c3.3-4,12.1-18.3,13.8-20.9l-1.5-15.4
			C529.9,231.5,530.4,230.8,531.2,230.7z"/>
		<path id="Karniowice" class="st0" d="M449.2,238L449.2,238c-0.5-0.4-0.6-0.9-0.5-1.5l2.6-11.8l-14.7-9.8l-4.1-2.7c-0.4-0.2-0.6-0.6-0.6-1.1
			c0-0.4,0.1-0.9,0.4-1.2l7-7.1l-24.1-15.3c-0.5-0.3-0.8-1-0.6-1.6l5.8-21.4l0.8-16.8v-9c0-0.6,0.3-1.1,0.9-1.3
			c0.4-0.2,0.8-0.2,1.2,0c0.2,0.1,0.4,0.1,0.5,0.3c1.2,1,4.3,3.5,6.7,4.3c0.3,0.1,0.7,0.2,1,0.2c1.4,0.2,2.5,0.1,3.2-0.1l-0.4-1.3
			c-0.1-0.4-0.1-0.8,0.1-1.2l1.2-2.1h-0.8c-0.2,0-0.4-0.1-0.6-0.1c-0.6-0.2-1-0.7-1-1.4c-0.1-2.6,0.1-8.9,3.2-9.7
			c0.4-0.1,1.1-0.4,1.2-1c0.2-0.7-0.2-1.7-1.1-2.7c-2.2-2.5-3.6-3-3.6-3c-0.5-0.2-0.9-0.6-1-1.1s0-1.1,0.4-1.4l2.9-2.7l1.6-2.7
			c0,0,0,0,0-0.1l-0.2,0.1c-0.4,0.2-0.8,0.2-1.1,0l0,0c-0.1,0-0.1,0-0.2-0.1c-0.4-0.1-0.7-0.4-0.8-0.8l-1.4-3.3l-4.4-3
			c-0.4-0.3-0.6-0.7-0.6-1.1l-0.6-8.3l-3.4-9.1v-0.1c-1.3-4.6-1.1-6.4-0.7-7.2l-1.9-3.9l-4.9-5.3l-6.2-6.7l-4.1-3.4
			c-0.6-0.5-0.7-1.4-0.2-2l2.5-3.3V50c0-0.1,0-0.2,0-0.3l3.5-14.7l-1.1-2l-5.1-1.1c-0.8-0.1-9.2-1.3-12.4-1.9
			c-2.7-0.5-4.2-3.6-5.7-6.5c-0.7-1.4-1.5-2.9-2.2-3.6c-1-0.9-3.5,0.8-4.5,1.7c-0.1,0.1-7.8,6.5-10.2,9.9c-1.9,2.6-4.7,2.7-6.8,2.8
			c-1.1,0-2.3,0.1-2.6,0.5c-0.6,1.1,0.8,7.2,2.8,13c0.1,0.3,0.1,0.7,0,1l-3.9,10.8c-0.1,0.2-0.2,0.4-0.3,0.5c-1.8,1.8-4.9,5.3-5.5,7
			c-0.2,0.9,2.4,4.4,5.5,7.2c0.3,0.3,0.5,0.7,0.5,1.1v11.1c0,0.4-0.2,0.8-0.4,1l-3.5,3.5l-2,2.5l3.9,3.9c0.3,0.3,0.4,0.6,0.4,1v4.4
			l4.4,6.5c0.2,0.2,0.3,0.5,0.3,0.8c0,0.1,0.2,13.8,0,20.9c-0.2,5.1-0.9,7.6-1.4,8.8l1,3.2l2.7-0.1l3.7-3.2c0.3-0.3,0.7-0.4,1.2-0.4
			l3.7,0.5c0.7,0.1,1.3,0.7,1.3,1.5l-0.3,30.2l10.5,30.8l3.4,6.6c0.2,0.4,0.2,0.8,0.1,1.2L388,214v2.3c0,0.5-0.2,0.9-0.6,1.2
			l-2.2,1.7c1.4,0.9,3.2,2.2,4.2,3.3c1.1,1.3,5.5,4.2,7.1,5.1c0.4,0.3,0.7,0.7,0.7,1.2v2.9c2.9,1.2,11.9,5.2,15.4,9.9
			c0.2,0.3,0.4,0.5,0.6,0.8c0.1,0.1,0.1,0.2,0.1,0.2c0.1,0.2,0.2,0.4,0.4,0.6c0,0.1,0.1,0.2,0.1,0.3c0.1,0.2,0.2,0.4,0.3,0.6
			c0,0.1,0.1,0.2,0.1,0.2c0.1,0.2,0.2,0.4,0.3,0.6c0,0.1,0.1,0.1,0.1,0.2c0.1,0.2,0.2,0.4,0.3,0.7v0.1c0.3,0.8,0.5,1.6,0.6,2.3
			l2.4-1.3c0.1,0,0.1-0.1,0.2-0.1l5.6-1.9l3-1.3l1.5-2.2c0.4-0.5,1-0.8,1.7-0.6l2.4,0.7l2.4-0.7c0.1,0,0.3-0.1,0.4-0.1h2.8
			c0.2,0,0.3,0,0.5,0.1l3.3,1.1h0.1l6.9,3h2.9c0.1,0,0.2,0,0.3,0v-4.5L449.2,238L449.2,238z"/>
		<path id="Ujazd" class="st0" d="M528.6,190.4v6.7l1.3,7.7c0,0.1,0,0.2,0,0.3l-0.2,9.1l5.4,3.5h6.1c0.5,0,0.9,0.2,1.2,0.6
			c0.3,0.4,0.4,0.8,0.3,1.3l-1,3.8l1.7,6.8c0.1,0.4,0,0.8-0.2,1.2c-0.2,0.3-0.6,0.6-1,0.6l-9.3,1.3l1.3,13.3l13.2,2l9.9,1.2
			l-1.8-6.1c-0.2-0.7,0.1-1.4,0.8-1.7l1.5-0.7v-1c0-0.5,0.3-1,0.8-1.3s1-0.2,1.5,0l6.1,3.9l0.7-2.9l-1-4.9c-0.1-0.5,0.1-1.1,0.5-1.4
			c3.2-2.8,6.9-6.2,7.3-6.9c0.4-0.7,1.2-4.7,1.7-8.1c0.1-0.7,0.7-1.3,1.5-1.3h1.7c1.1-1.2,2.5-2.8,2.9-3.4c0.2-0.4,1.4-0.5,1.4-2.3
			c0-0.5,0.2-0.9,0.6-1.2c0.4-0.3,0.9-0.3,1.3-0.2c0.8,0.3,2-1,3.6-0.8l0.2-0.4l-1.1-0.8c-0.4-0.3-0.7-0.8-0.6-1.3l0.3-3.4l-3-0.3
			l-1.4,4.3c-0.2,0.7-0.9,1.1-1.7,1l-7-1.3c-1.7-0.3-16.5-3.3-18.3-4c-1.7-0.7-4.8-4.2-6.3-6h-4.3c-1.8,0-2.7-1.8-3.1-3.7
			L528.6,190.4z"/>
		<path id="Zelków" class="st0" d="M411.4,50.5v4.4c0,0.3-0.1,0.6-0.3,0.9l-2,2.6l3.1,2.6l0.1,0.1l6.3,6.7l5,5.4c0.1,0.1,0.2,0.2,0.2,0.3
			l2.4,4.8c1.7,1.2,2.6,4.2,3,5.9l7.4,6.4l6.9,2.1c0.2,0,0.3,0.1,0.4,0.2l7.4,5.4l17.3,13.7l0.1,0.1l15.6,15.8
			c0.1,0.1,0.2,0.3,0.3,0.4l1.5,3.3c0.1,0.3,0.2,0.6,0.1,0.9l-0.7,3.4l3.7,4.2c0.2,0.3,0.4,0.6,0.4,1v4.6l6.2,6.8l10.4,5.7
			c0.5,0.3,0.8,0.8,0.8,1.3v2.1l4.7,5.7c0.2,0.3,0.4,0.7,0.3,1.1c0,0.4-0.2,0.7-0.5,1l-2.8,2.2l5.7,2.8l3.7,0.2
			c0.6,0,1.2,0.5,1.3,1.1l2.2,7.7l6.1,3.7l15.1,3.6l0.5-1.3c-1.2-0.7-2.6-1.7-2.8-3.1c-0.2-1.2,0.7-4.1,1.5-6.3
			c-0.8-0.3-1.7-0.7-2.4-1.2c-1.4-0.9-1.6-3-1.7-5.1c-0.1-1-0.2-2.1-0.4-2.9c-0.4-1.6-2.6-2.5-2.6-2.5c-0.5-0.2-0.8-0.6-0.9-1.1
			c-0.1-0.5,0.1-1,0.5-1.4l1.3-1c-0.9-2.1-2.7-6.5-2.9-8.5c-0.3-3,3.1-4.7,4.3-5.3l3.7-4.3c0.1-0.1,0.1-0.1,0.2-0.2l2.2-1.8l0.3-2.3
			c0.1-0.6,0.5-1,1-1.2l2.7-0.8l0.2-2.9c0-0.4,0.2-0.7,0.4-1c1.4-1.4,6.2-6.2,8.1-6.9c1.5-0.6,3,0,4.1,0.5l1.1-1.5
			c0.2-0.2,0.4-0.4,0.6-0.5c0.1,0,3.1-1.2,7.6-1.4c3.7-0.2,5.5-1.7,5.6-1.8l0.1-0.1l1.8-1.3l3.1-3.8c0.1-0.1,0.2-0.2,0.3-0.3
			l3.5-2.3l-0.9-2.1c-0.2-0.5-0.1-1,0.2-1.4l2.3-2.9c0.3-0.4,0.7-0.6,1.2-0.6h3c0.5-0.6,1.3-1.6,1.2-2.6c-0.2-2.3-0.4-5.2-0.4-5.2
			c0-0.2,0-0.5,0.1-0.7c0.3-0.6,0.5-1.7,0.2-2.1c-0.5-0.7-2.4-2.2-3.8-3.4c-1.1-0.9-2.1-1.7-2.6-2.3c-0.8-0.8-4.5-1.8-8-1.5
			c-2.8,0.3-5.9-0.6-8.2-1.2c-0.8-0.2-1.5-0.4-2-0.5h-0.2c-2.6-0.4-7.1-1.2-7.6-4.1c-0.1-0.6-1.3-1-2-1.1c-0.1,0-0.3-0.1-0.4-0.1
			l-3.9-1.6c-0.5-0.2-0.8-0.6-0.9-1.1c0-0.1-1.2-5.4-4.2-5.7c-3.5-0.3-7.3,3.2-7.4,3.2c-0.5,0.5-1.2,0.5-1.8,0.1
			c-0.1-0.1-2.2-1.4-4.3-0.3c-3.2,1.8-7.1,1.8-7.2,1.8c-0.3,0-0.5-0.1-0.8-0.2c-0.1-0.1-2.7-1.7-4-2.7c-0.4-0.2-1.9,0-2.8,0.1
			c-1.2,0.2-2.4,0.3-3.4,0.2c-1.4-0.2-2.4-1.5-3.3-2.6c-0.5-0.7-1.4-1.7-1.8-1.7c-1,0.1-1.8,0-2.4,0c-1.1-0.1-1.7-0.2-2.7,0.7
			c-1.4,1.2-3.8,6.8-5.1,10.5c-0.2,0.6-0.8,1-1.5,1l-5.2-0.3c-0.4,0-0.7-0.2-1-0.5c0,0-3.2-3.5-5.9-5.3c-2.8-1.8-9.9-5.7-12.4-6.7
			c-2.7-1-5.9-6.9-7.1-9.4c-1.3-0.6-4.8-2.1-6.8-2.6c-1.8-0.5-2.6-2.1-3.3-3.6c-0.8-1.7-1.4-2.8-2.8-3.1c-2.7-0.6-6-4.6-10.7-10.8
			c-2.3-3-4.5-5.8-5.9-7c-3.1-2.6-8.1-8-10.2-10.4c-1,0.9-2.4,2.1-3.6,2.5c-1.4,0.6-2.8,0.2-4.3-0.1c-0.8-0.2-1.7-0.4-2.5-0.4
			s-2.2,1.2-3.2,2.3l1.2,2.5c0.1,0.2,0.1,0.3,0.1,0.5s0,0.3,0,0.5L411.4,50.5z"/>
		<path id="Młynka" class="st0" d="M49.1,386.7L49.1,386.7c0.2,0,0.4-0.1,0.5-0.2c0,0,0.1,0,0.1-0.1c0.2-0.1,0.4-0.2,0.6-0.4
			c0.8-0.6,1.7-1.4,2.4-2c1.8-1.6,2.9-2.7,4.2-2.3c0.6,0.2,1.1,0.7,1.3,1.4c0.4,1.4-0.7,3.9-3.4,7.5c0.8,1.5,1.7,3,2.3,3.8
			c1.3-1.1,3.8-4.2,5.8-6.9c0,0,0-0.1,0.1-0.1l3-3.5c0.3-0.4,0.8-0.5,1.3-0.5s0.9,0.3,1.1,0.7c1.2,2.2,3.6,5.6,5.1,6
			c1.9,0.6,5.4,0.5,6.6,0.4c0.5-0.1,1,0.2,1.3,0.6l0.1,0.2c2.5-5.9,4.8-8.8,6.8-8.6c1.6,0.1,5.5,0.1,7.5,0c0.2-5.4,1.2-5.7,2-5.9
			c0.4-0.1,1.3-0.3,6.2,2.1l3.4-2.9v-3.2c0-0.5,0.2-0.9,0.6-1.2c0.4-0.3,0.9-0.3,1.3-0.2c1.2,0.4,2.8,0.7,3.4,0.7
			c0.2-1.2,0-3.5-0.1-4.8c-0.1-0.5,0.1-0.9,0.5-1.2l1.1-1l-0.1-0.1c-0.3-0.2-0.6-0.4-0.8-0.6c-0.1-0.1-0.2-0.1-0.2-0.2
			c-0.3-0.2-0.5-0.4-0.8-0.6c0,0,0,0-0.1,0c-0.2-0.2-0.4-0.4-0.6-0.5l-0.1-0.1c-0.2-0.2-0.3-0.3-0.4-0.5l-6.6-1.2
			c-0.4-0.1-0.8-0.3-1-0.7l-1.3-2.2l-11.9-4.6c-0.6-0.2-0.9-0.8-0.9-1.4s0.3-1.1,0.9-1.4l1.7-0.7v-4.9c0-0.4,0.2-0.8,0.5-1.1
			c0.3-0.3,0.8-0.4,1.2-0.3c3.4,0.5,7.6,0.8,9.3,0.6c-1.1-1.9-4.8-6.1-8.2-9.4c-0.4-0.4-0.5-1.1-0.3-1.6s0.8-0.9,1.4-0.9h8.6l0,0
			c-0.1-0.1-0.2-0.2-0.3-0.3c-4.5-4.9-11.3-12.1-15.2-16.1l0,0c-0.2-0.2-0.4-0.4-0.5-0.6c0,0,0,0-0.1-0.1c-0.4-0.4-0.7-0.7-1-1l0,0
			c-0.1-0.1-0.3-0.2-0.4-0.4l-0.1-0.1c-0.1-0.1-0.2-0.2-0.2-0.2l-0.1-0.1c-0.1-0.1-0.1-0.1-0.2-0.2c0,0,0,0-0.1-0.1
			s-0.1-0.1-0.2-0.1c-0.3-0.2-0.6-0.4-0.9-0.6c0,0-0.1,0-0.1-0.1c-0.3-0.2-0.6-0.3-0.9-0.5c0,0-0.1,0-0.1-0.1
			c-0.3-0.1-0.6-0.3-0.8-0.4c-0.1,0-0.1-0.1-0.2-0.1c-0.2-0.1-0.4-0.2-0.6-0.3h-0.1l-1.8,3.2l-3.4,24.9c-0.1,0.7-0.6,1.2-1.3,1.3
			h-0.5l0.4,1.6c0,0.1,0,0.1,0,0.2l0.4,3.7c0.1,0.4-0.1,0.8-0.4,1.2l-7.2,7.8c-0.1,0.1-0.1,0.1-0.2,0.2l-2.8,2.2l-13.2,10.6
			c-0.6,0.5-1.5,0.4-2-0.2l-1.8-2l-8.7,2c-0.2,0.1-0.5,0-0.7,0l-3.6-1l-4.2,8.5c-0.2,0.4-0.6,0.7-1,0.8l-3.1,0.6l0.3,10.3
			c0.9-0.6,2.1-1.4,3.2-1.9c1.5-0.8,3.1-0.3,4.3,0c0.7,0.2,1.3,0.3,1.8,0.3c0.6-0.1,2.6-1.9,4-3.8c0.5-0.6,1.3-0.7,2-0.3
			c2,1.3,4.1,3.1,4.4,4.8h0.1h0.1c0.1,0,0.2,0.1,0.4,0.1c0,0,0,0,0.1,0s0.2,0,0.4,0h0.1C48.8,386.8,48.9,386.8,49.1,386.7z"/>
		<path id="Pisary" class="st0" d="M107.5,331.4c0.1,0.1,0.1,0.1,0.2,0.2c0.1,0.2,0.3,0.3,0.4,0.5c0.1,0.1,0.2,0.2,0.3,0.3
			c0.1,0.1,0.2,0.2,0.2,0.3c0.5,0.6,0.9,1,1.2,1.4l2,0.6l3.6,1.2l3.1-12.2c0.1-0.3,0.2-0.5,0.4-0.7l6.7-6.5l-6.5-4.2
			c-0.3-0.2-0.6-0.6-0.6-1s0-0.8,0.3-1.1l9.7-13.2l5.4-9.7c0.1-0.1,0.1-0.2,0.2-0.3c0.2-0.2,0.5-0.4,0.8-0.5h0.1c0.1,0,0.1,0,0.2,0
			c0.3,0,0.6,0.1,0.9,0.4c0.1,0.1,1,0.7,2.4-0.1c0.8-0.9,1.1-7.3,0.6-13.6c0-0.5,0.2-1.1,0.7-1.4l3.7-2.4l0.4-1.1l-1.1-0.5
			c-0.3-0.1-0.6-0.4-0.7-0.7l-1.1-2.2c-0.2-0.5-0.2-1.1,0.1-1.5l1.2-1.7l-0.4-2.5c-0.1-0.4,0.1-0.8,0.3-1.2c0.3-0.3,0.7-0.5,1.1-0.5
			h1.5l0.2-0.3l-2.6-2.3c-0.3-0.3-0.5-0.7-0.5-1.1v-1.3l-1.8-0.5c-0.4-0.1-0.7-0.4-0.9-0.8l-1.4-3h-1.7c-0.8,0-1.5-0.7-1.5-1.5l0,0
			l-1.5,1.2c-0.3,0.3-0.8,0.4-1.2,0.3c-0.4-0.1-0.8-0.3-1-0.7l-1.3-2.2l-1.5-2.4c-0.2-0.2-0.2-0.5-0.2-0.8v-3.9l0.2-4.2l-1.4-1.5
			c-0.3-0.3-0.4-0.6-0.4-1v-10.2L125,219c-0.1-0.2-0.2-0.3-0.2-0.5l-0.8-4.1l-1.8-2.8c-0.4-0.6-0.3-1.3,0.1-1.8l3-3.5
			c0.3-0.3,0.7-0.5,1.1-0.5h3.6l0.7-3.9l-1.3-1.9l-3.5-2.8l-2.5,0.8c-0.4,0.2-0.9,0.1-1.3-0.2s-0.6-0.7-0.6-1.2v-1.1h-1.6
			c-0.5,0-1-0.3-1.3-0.8s-0.2-1.1,0.1-1.5c0.1-0.1,1.6-2.5,0.2-3.7c-0.2-0.2-0.3-0.2-0.3-0.2c-0.1,0-0.2,0.2-0.3,0.4
			c-0.2,0.4-0.5,1-0.7,1.5v0.1c-0.2,0.5-0.6,0.8-1.1,1c-0.5,0.1-1.1-0.1-1.4-0.5l-3.5-4.1c-0.2-0.3-0.3-0.6-0.3-0.9V184
			c0-0.4,0.2-0.8,0.4-1l2.1-2.1c-0.3-1.7-0.9-3.6-1.5-4.2c-0.2,0.1-0.5,0.2-0.8,0.5s-0.6,0.6-0.8,0.9l-0.1,0.1
			c-0.1,0.2-0.3,0.3-0.5,0.4l-6.9,3c-0.7,0.3-1.5,0-1.9-0.6l-0.9-1.6c-1.7,1.2-4.6,3.1-6.9,4.2c-2.7,1.3-9.7,3.9-12.4,4.9l0.3,7.4
			l1.3-0.1c0.7-0.1,1.3,0.4,1.5,1l3.9,12.8c0.2,0.6-0.1,1.3-0.6,1.7l-2.1,1.3l-0.2,7c0,0.6-0.4,1.1-1,1.3l-5.4,2
			c-0.5,0.2-1.2,0.1-1.6-0.4l-3.2-3.4l-5.1,0.7l-2.7,2.7v3.7c0,0.4-0.2,0.9-0.5,1.1c-0.3,0.3-0.8,0.4-1.2,0.3l-3.3-0.7l-3.8,6.1
			l0.9,13.4c0,0.5-0.2,1-0.6,1.3c-0.4,0.3-0.9,0.4-1.4,0.2L41.2,243l-0.2,1.1c-0.1,0.5-0.4,1-0.9,1.2s-1.1,0.1-1.5-0.3l-3.1-2.6
			l-4.3,6l9.7,3.7c0.4,0.1,0.7,0.4,0.8,0.8c0.2,0.4,0.2,0.8,0,1.2l-3.9,8.9l3.7,4.1c0.3,0.4,0.5,0.9,0.3,1.4l-2.4,8.4l3.8,1.1
			c0.6,0.2,1,0.7,1.1,1.3l0.1,1.9l1.1,0.2c0.1,0,0.2,0,0.3,0.1l29.1,12.4c0.4,0.2,0.7,0.5,0.8,0.9l1,3.1l4.2,0.2
			c0.3,0,0.5,0.1,0.8,0.2l3.9,2.6c0.5,0.3,0.7,0.9,0.6,1.4l-0.4,3.3l0,0c0,0.2-0.1,0.4-0.2,0.5l-1.6,2.7c1.1,0.5,2.7,1.2,4,2.1
			C89.6,312.2,101.8,325.2,107.5,331.4z"/>
		<path id="Radwanowice" class="st0" d="M102,176.5l1.1,1.9l5.4-2.4c0.6-0.7,1.9-2.1,3.4-2.3c0.8-0.1,1.5,0.1,2.2,0.7c1.8,1.6,2.6,5.9,2.7,6.8
			c0.1,0.5-0.1,0.9-0.4,1.2l-2.2,2.2v1.7l1.7,2c0.5-0.7,1.2-1.4,2-1.6c0.7-0.2,1.8-0.2,3,0.9c1.7,1.5,1.8,3.6,1.3,5.3h0.8
			c0.8,0,1.5,0.7,1.5,1.5v0.6l1.3-0.4c0.5-0.2,1-0.1,1.4,0.2l4.3,3.5c0.1,0.1,0.2,0.2,0.3,0.3l1.1,1.7l2.9-0.8
			c0.3-0.1,0.7-0.1,1,0.1l1.7,0.8l2.2-1.3c0.4-0.3,0.9-0.3,1.4-0.1l3.2,1.5l3.6-0.8c0.3-0.1,0.6,0,0.9,0.1l4.3,2
			c0.2,0.1,0.3,0.2,0.4,0.3l2.8,2.8l3.4,1.4c0.2,0.1,0.4,0.2,0.5,0.4l2.5,2.6l10.3-6.1c0.5-0.3,1.2-0.3,1.7,0.1
			c0,0,5.3,4.4,12.8,3.6c3.9-0.4,7.8-1.6,11.1-2.6c3.8-1.2,6.5-2,8.4-1.4c0.2,0,0.3,0.1,0.5,0.2c0.1,0,0.1,0,0.2,0.1
			c0.2,0,0.3,0.1,0.5,0.2c0.1,0,0.2,0,0.2,0.1c0.2,0.1,0.4,0.1,0.6,0.2c0.1,0,0.2,0.1,0.3,0.1c0.2,0.1,0.5,0.2,0.7,0.2
			c0.1,0,0.1,0,0.2,0.1c0.7,0.2,1.4,0.5,2.2,0.7c0.1,0,0.1,0,0.2,0.1c0.3,0.1,0.7,0.2,1,0.3c0.1,0,0.1,0,0.2,0.1
			c1.2,0.4,2.3,0.8,3.4,1.1c0.6,0.2,1.2,0.4,1.8,0.6l0,0c0.6,0.2,1.1,0.4,1.5,0.5v-1.4l-1.2-3.5c-0.1-0.2-0.1-0.3-0.1-0.5v-4.2
			l-2.7-5.1c-0.1-0.2-0.1-0.3-0.2-0.5l-1.5-11.8l-4.5-12.2c-0.1-0.3-0.1-0.7,0-1l2.3-6.5v-11.3c0-0.4,0.1-0.7,0.4-1l2.2-2.5l1.1-7.8
			l-2.2-5c0-0.1-0.1-0.2-0.1-0.2l-1.5-6.3c0-0.1,0-0.2,0-0.3V104l-3.9-6.6c-0.1-0.1-0.1-0.2-0.2-0.4l-1.5-5.5
			c-1.7-0.5-5.8-1.7-8.5-2.4c-2.3-0.6-10.7-1.1-15.9-1.3c0.1,0.8,0,1.6-0.3,2.6c-1.1,2.8-5.2,4.2-8.3,5.2c-0.7,0.2-1.3,0.4-1.7,0.6
			c-0.1,0.6,0.5,2.3,1.2,3.7c0.2,0.3,0.2,0.6,0.2,1c-0.4,2.2-1.6,7.2-4.6,7.5c-2.4,0.2-4.1-2.6-5.1-4.8l-5.8,3l-7.2,13.1
			c-0.1,0.3-0.4,0.5-0.7,0.6l-15.6,7.4c-0.3,0.1-0.6,0.2-0.9,0.1l-4.2-0.9l-4.6,4.8c-0.2,0.3-0.6,0.4-0.9,0.4l-2.1,0.2l-5.9,2.6
			l-5.3,4.8c-0.2,0.2-0.5,0.3-0.8,0.4l-3.1,0.5l-0.4,1.9c-0.1,0.3-0.2,0.6-0.5,0.8l-3.8,3.2l-4.8,12.7l5.5,9.2
			c0.2,0.4,0.3,0.8,0.1,1.2c-0.1,0.4-0.4,0.7-0.8,0.9l-1.3,0.6l0.4,1.3c0.2,0.5,0.1,1-0.3,1.4c-0.3,0.4-0.8,0.6-1.3,0.5h-0.2
			L102,176.5L102,176.5z"/>
		<path id="Brzezie" class="st0" d="M566.8,246.6c-0.2,0-0.3-0.1-0.4-0.2l-5.7-3.6c-0.1,0.3-0.4,0.6-0.7,0.7l-1.2,0.6l2,7c0.1,0.5,0,1-0.3,1.4
			c-0.1,0.1-0.2,0.2-0.3,0.2c0,0-0.1,0-0.1,0.1c-0.1,0-0.1,0.1-0.2,0.1h-0.1c-0.1,0-0.1,0-0.2,0.1h-0.1h-0.1c-0.1,0-0.1,0-0.2,0
			l-12.2-1.5l-13.4-2c-2.2,3.5-10.4,16.8-13.7,20.8c-2.8,3.5-7.4,3.6-10.2,3.2c0.6,2.1,1.3,5,1.6,6.7c0.4,2.7-1.3,4.9-2.1,5.8v5
			c0,0.1,0,0.2,0,0.3l-5.1,22.8l3.9,3.9c0.3,0.3,0.4,0.6,0.4,1v3.9c0,0.2,0,0.4-0.1,0.5l-7.6,19.6l7.2,5.4l0.1,0.1l3.7,3.5h9
			c0.3,0,0.6,0.1,0.9,0.3l13.1,9.7c1.8-0.1,7.1,0,9.9,2.8c2.4,2.4,4.6,9.8,5.6,13.4l9.6-5.2c0.2-0.1,0.3-0.1,0.5-0.2
			c0.1,0,0.1,0,0.2,0l0,0c0.5,0,12.6,0.2,17.5,3.2c3.3,2,5.9,3.7,7.1,4.5c0.2-0.1,0.4-0.2,0.6-0.3h0.1c0.2-0.1,0.4-0.2,0.6-0.3
			c0,0,0.1,0,0.1-0.1c0.2-0.1,0.4-0.2,0.6-0.3c0.1,0,0.1,0,0.2-0.1c0.2-0.1,0.5-0.2,0.7-0.4c0,0,0.1,0,0.1-0.1
			c0.3-0.1,0.6-0.3,0.9-0.4c0,0,0,0,0.1,0c1-0.5,2.1-0.9,3.2-1.3h0.1c0.3-0.1,0.6-0.2,1-0.4c0.1,0,0.1-0.1,0.2-0.1
			c0.3-0.1,0.6-0.2,0.8-0.3c0.1,0,0.2-0.1,0.3-0.1c0.3-0.1,0.5-0.2,0.8-0.2c0.1,0,0.2-0.1,0.3-0.1c0.3-0.1,0.5-0.1,0.8-0.2
			c0.1,0,0.2,0,0.3-0.1c0.3-0.1,0.6-0.1,0.9-0.2h0.1c0.3-0.1,0.6-0.1,0.9-0.1c-0.1-0.4-0.1-0.8-0.1-1.2c-0.2-3.1,3.1-10.2,6.4-17.1
			c0.7-1.4,1.3-2.8,1.4-3.1c0.4-2.3,3.3-20.6,1.3-27.9c-2.1-7.9-3.9-13.1-3.9-13.2s-0.1-0.2-0.1-0.3c0-0.3-0.9-7.3,0-11.2
			c0.5-2.2,1.5-5.2,2.5-8.3c0.7-2.3,1.5-4.6,2-6.5c0.8-2.7,2.1-5.3,3.1-7.4c0.7-1.5,1.4-2.8,1.6-3.6c0.3-1.1-0.2-3.4-0.7-5l-6,0.7
			c-0.4,0.1-0.8-0.1-1.1-0.3c0,0-3.4-2.8-6.4-3.1c-3.1-0.4-12.3,0.2-13.5,0.2l-7.3,1.7c-0.4,0.1-0.9,0-1.3-0.3
			c-0.4-0.3-0.6-0.7-0.5-1.2l0.2-5.2c0-0.2,0.1-0.4,0.2-0.6l1.2-2.3l-1.4-4.9c-0.8,0.1-1.9,0.1-2.8-0.2c-1.2-0.3-1.6-1.1-1.7-1.5
			c-0.2-0.7-0.1-1.4,0.1-1.9c-0.5-1-1.1-1.9-1.4-2.1c-0.7-0.3-1.2-0.9-1.3-1.6c-0.1-0.3-0.1-0.7,0-1L566.8,246.6
			C566.9,246.6,566.9,246.6,566.8,246.6z"/>
	</g>
	<text transform="matrix(1 0 0 1 423.8408 387.2393)" class="st1 st2 st3">Zabierzów</text>
	<text transform="matrix(1 0 0 1 548.2881 231.5649)" class="st1 st2 st3">Ujazd</text>
	<text transform="matrix(1 0 0 1 540.2676 335.8428)" class="st1 st2 st3">Brzezie</text>
	<text transform="matrix(1 0 0 1 447.4072 249.7598)" class="st1 st2 st3">Bolechowice</text>
	<text transform="matrix(1 0 0 1 363.3438 125.6196)" class="st1 st2 st3">Karniowice</text>
	<text transform="matrix(1 0 0 1 496.2979 125.6196)" class="st1 st2 st3">Zelków</text>
	<text transform="matrix(1 0 0 1 296.2119 176.6226)" class="st1 st2 st3">Kobylany</text>
	<text transform="matrix(1 0 0 1 233.7295 227.335)" class="st1 st2 st3">Brzezinka</text>
	<text transform="matrix(1 0 0 1 349.5186 277.978)" class="st1 st2 st3">Więckowice</text>
	<text transform="matrix(1 0 0 1 221.6357 333.1357)" class="st1 st2 st3">Niegoszowice</text>
	<text transform="matrix(1 0 0 1 263.6934 368.4561)" class="st1 st2 st3">Kochanów</text>
	<text transform="matrix(1 0 0 1 349.6963 449.8545)" class="st1 st2 st3">Burów</text>
	<text transform="matrix(1 0 0 1 426.1875 562.7275)" class="st1 st2 st3">Balice</text>
	<text transform="matrix(1 0 0 1 504.293 488.5762)" class="st1 st2 st3">Szczyglice</text>
	<text transform="matrix(1 0 0 1 610.0391 464.8174)" class="st1 st2 st3">Rząska</text>
	<text transform="matrix(1 0 0 1 265.7607 509.79)" class="st1 st2 st3">Aleksandrowice</text>
	<text transform="matrix(1 0 0 1 115.5195 494.2168)" class="st1 st2 st3">Brzoskwinia</text>
	<text transform="matrix(1 0 0 1 248.9961 414.2588)" class="st1 st2 st3">Kleszczów</text>
	<text transform="matrix(1 0 0 1 104.6836 421.127)" class="st1 st2 st3">Nielepice</text>
	<text transform="matrix(1 0 0 1 145.0654 326.1357)" class="st1 st2 st3">Rudawa</text>
	<text transform="matrix(1 0 0 1 75.0186 267.4639)" class="st1 st2 st3">Pisary</text>
	<text transform="matrix(1 0 0 1 121.6709 176.0928)" class="st1 st2 st3">Radwanowice</text>
	<text transform="matrix(1 0 0 1 52.2695 376.2744)" class="st1 st2 st3">Młynka</text>
</g>
</svg>
