<?xml version="1.0" encoding="UTF-8"?>
<svg width="45px" height="51px" viewBox="0 0 45 51" version="1.1" xmlns="http://www.w3.org/2000/svg" xmlns:xlink="http://www.w3.org/1999/xlink">
    <!-- Generator: Sketch 54.1 (76490) - https://sketchapp.com -->
    <title>awful</title>
    <desc>Created with Sketch.</desc>
    <g id="Page-2" stroke="none" stroke-width="1" fill="none" fill-rule="evenodd">
        <g id="Desktop-HD" transform="translate(-417.000000, -114.000000)" fill="#7D0D0F" fill-rule="nonzero">
            <g id="awful" transform="translate(439.682834, 139.821159) scale(-1, 1) rotate(-180.000000) translate(-439.682834, -139.821159) translate(417.182834, 114.321159)">
                <path d="M15.9997696,33.7996429 C17.5541472,33.7996429 18.815729,32.538861 18.815729,30.9836834 C18.815729,29.4301058 17.5541472,28.169324 15.9997696,28.169324 C14.445392,28.169324 13.1838102,29.4301058 13.1838102,30.9836834 C13.1838102,32.538861 14.445392,33.7996429 15.9997696,33.7996429 M28.8251849,33.7996429 C30.3795625,33.7996429 31.6403444,32.538861 31.6403444,30.9836834 C31.6403444,29.4301058 30.3795625,28.169324 28.8251849,28.169324 C27.2716073,28.169324 26.0108254,29.4301058 26.0108254,30.9836834 C26.0108254,32.538861 27.2716073,33.7996429 28.8251849,33.7996429 M22.1628808,24.4501775 C28.4987896,24.4501775 33.6347157,19.3142515 33.6347157,12.9799427 C33.6347157,11.6447619 33.3947191,10.3695803 32.9763251,9.17759744 L33.122723,9.08479878 C34.9042974,10.0751845 36.5618735,11.3151667 38.0450521,12.7959453 C46.6585281,21.4142212 46.6585281,35.4340193 38.0402522,44.0514953 C33.8691123,48.2250352 28.3163922,50.5234021 22.4148772,50.5234021 C16.5093623,50.5234021 10.9590422,48.2250352 6.78790225,44.0514953 C2.61356236,39.8795553 0.311195519,34.3276353 0.311195519,28.4221203 C0.311195519,22.5166054 2.60956242,16.9654853 6.78390231,12.7919454 C8.15588255,11.4199652 9.67906062,10.2551819 11.3118371,9.30399562 C10.9182428,10.458379 10.691046,11.6903613 10.691046,12.9799427 C10.691046,19.3142515 15.8269721,24.4501775 22.1628808,24.4501775" id="path126"></path>
                <path d="M32.3243497,9.29405347 L32.2007363,9.37113007 C32.5895307,10.4759142 32.8103275,11.6582971 32.8103275,12.8942793 C32.8103275,18.7637948 28.052796,23.5237263 22.1816806,23.5237263 C16.3121651,23.5237263 11.5530336,18.7637948 11.5530336,12.8942793 C11.5530336,11.6998965 11.7634306,10.559113 12.1282254,9.48952836 C12.1301876,9.48838378 12.13215,9.48723954 12.1341125,9.48609564 C12.1989703,9.29446214 12.2599225,9.10089907 12.3359024,8.91560122 L10.4407297,7.93881528 L9.54634253,9.67399029 L5.68239817,7.680419 L9.37194504,0.52372206 L13.2358894,2.51489339 L12.2655034,4.39806627 L14.516671,5.55804956 C16.4510431,3.53967863 19.167804,2.27969677 22.1813606,2.27969677 C25.3837145,2.27969677 28.2460733,3.7012763 30.1956452,5.93884408 L32.3716138,4.57086378 L31.2860295,2.77248968 L35.0107758,0.527722003 L39.168316,7.4236227 L35.4451696,9.66919036 L34.4291842,7.98441462 L32.3372143,9.30119566 C32.3329269,9.29881335 32.3286387,9.29643263 32.3243497,9.29405351 Z M23.0819135,6.7412829 C23.3207709,6.50793758 23.470942,6.18454614 23.470942,5.82284575 C23.470942,5.11005602 22.8933503,4.53406431 22.1813606,4.53406431 C21.4717708,4.53406431 20.8933791,5.11005602 20.8933791,5.82284575 C20.8933791,6.19220073 21.0517333,6.5223515 21.2998703,6.75678319 C21.3050109,6.75650948 21.3101518,6.75623766 21.3152931,6.75596772 C21.5448897,6.96476472 21.8480854,7.09596283 22.1816806,7.09596283 C22.5256756,7.09596283 22.8344712,6.95996479 23.0656678,6.74076794 C23.0710834,6.74093751 23.0764986,6.74110916 23.0819135,6.74128291 Z M22.1816806,17.081419 C24.4952473,17.081419 26.3696203,15.206246 26.3696203,12.8942793 C26.3696203,10.5799127 24.4952473,8.70713963 22.1816806,8.70713963 C19.8697139,8.70713963 17.9945409,10.5799127 17.9945409,12.8942793 C17.9945409,15.206246 19.8697139,17.081419 22.1816806,17.081419 Z M15.0961826,11.6062979 C14.3841929,11.6062979 13.8074012,12.1814896 13.8074012,12.8942793 C13.8074012,13.6054691 14.3849929,14.1830608 15.0961826,14.1830608 C15.8065724,14.1830608 16.3825641,13.6054691 16.3825641,12.8942793 C16.3841641,12.1814896 15.8065724,11.6062979 15.0961826,11.6062979 Z M22.1816806,21.2685587 C22.8936703,21.2685587 23.470462,20.692567 23.470462,19.9813773 C23.470462,19.2693875 22.8936703,18.6917958 22.1816806,18.6917958 C21.4712908,18.6917958 20.8936991,19.2693875 20.8936991,19.9813773 C20.8936991,20.692567 21.4712908,21.2685587 22.1816806,21.2685587 Z M29.2679785,14.1830608 C29.9799683,14.1830608 30.55596,13.6054691 30.55596,12.8942793 C30.55596,12.1814896 29.9783683,11.6062979 29.2679785,11.6062979 C28.5567888,11.6062979 27.9807971,12.1814896 27.9807971,12.8942793 C27.9807971,13.6054691 28.5567888,14.1830608 29.2679785,14.1830608 Z" id="Combined-Shape"></path>
            </g>
        </g>
    </g>
</svg>