<?xml version="1.0" encoding="UTF-8"?>
<svg width="45px" height="45px" viewBox="0 0 45 45" version="1.1" xmlns="http://www.w3.org/2000/svg" xmlns:xlink="http://www.w3.org/1999/xlink">
    <!-- Generator: Sketch 54.1 (76490) - https://sketchapp.com -->
    <title>bad</title>
    <desc>Created with Sketch.</desc>
    <g id="Page-2" stroke="none" stroke-width="1" fill="none" fill-rule="evenodd">
        <g id="Desktop-HD" transform="translate(-358.000000, -114.000000)" fill="#CC571A" fill-rule="nonzero">
            <g id="bad" transform="translate(380.494646, 136.500000) scale(-1, 1) rotate(-180.000000) translate(-380.494646, -136.500000) translate(357.994646, 114.000000)">
                <path d="M22.3996774,-2.84217094e-14 C28.3051924,-2.84217094e-14 33.8539125,2.29996688 38.0338523,6.47510676 C46.6481283,15.0925827 46.6481283,29.1131808 38.0290524,37.7306567 C33.8579124,41.9041966 28.3051924,44.2025635 22.4036774,44.2025635 C16.4981624,44.2025635 10.9486423,41.9041966 6.7775024,37.7306567 C2.60236253,33.5579168 0.29999568,28.0067967 0.29999568,22.1012817 C0.29999568,16.1957668 2.59836258,10.6446467 6.77350246,6.47110681 C10.9454424,2.29756691 16.4949625,-2.84217094e-14 22.3996774,-2.84217094e-14 Z M32.1205775,10.0068959 C31.8525813,10.0068959 31.5853852,10.1228942 31.4029878,10.343691 C31.1861909,10.6004874 30.9661941,10.8516837 30.7245976,11.0908803 C28.4998296,13.3164482 25.5406722,14.5428306 22.3927175,14.5428306 C18.9247675,14.5428306 15.6440147,13.0124526 13.3904472,10.3420911 C13.056052,9.9444968 12.4664605,9.89649749 12.0704662,10.2300927 C11.6744719,10.5636879 11.6232726,11.1564793 11.9568678,11.5516737 C14.5672302,14.6452291 18.3679755,16.4196036 22.3927175,16.4196036 C26.043065,16.4196036 29.4702156,14.998824 32.0509785,12.4188612 C32.3341744,12.1380652 32.5901707,11.8468694 32.8429671,11.5460737 C33.1725623,11.1484795 33.121363,10.557288 32.7213688,10.2244928 C32.5493713,10.0780949 32.3341744,10.0068959 32.1205775,10.0068959 Z M15.9888098,27.4784843 C17.5431874,27.4784843 18.8047692,26.2177025 18.8047692,24.6625249 C18.8047692,23.1089472 17.5431874,21.8481654 15.9888098,21.8481654 C14.4344321,21.8481654 13.1728503,23.1089472 13.1728503,24.6625249 C13.1728503,26.2177025 14.4344321,27.4784843 15.9888098,27.4784843 Z M28.8143851,27.4784843 C30.3679627,27.4784843 31.6295445,26.2177025 31.6295445,24.6625249 C31.6295445,23.1089472 30.3679627,21.8481654 28.8143851,21.8481654 C27.2608074,21.8481654 25.9992256,23.1089472 25.9992256,24.6625249 C25.9992256,26.2177025 27.2608074,27.4784843 28.8143851,27.4784843 Z" id="Combined-Shape"></path>
            </g>
        </g>
    </g>
</svg>