<?xml version="1.0" encoding="UTF-8"?>
<svg width="45px" height="45px" viewBox="0 0 45 45" version="1.1" xmlns="http://www.w3.org/2000/svg" xmlns:xlink="http://www.w3.org/1999/xlink">
    <!-- Generator: Sketch 54.1 (76490) - https://sketchapp.com -->
    <title>eh</title>
    <desc>Created with Sketch.</desc>
    <g id="Page-2" stroke="none" stroke-width="1" fill="none" fill-rule="evenodd">
        <g id="Desktop-HD" transform="translate(-296.000000, -114.000000)" fill="#FF8F00" fill-rule="nonzero">
            <g id="eh" transform="translate(318.672897, 136.500000) scale(-1, 1) rotate(-180.000000) translate(-318.672897, -136.500000) translate(296.172897, 114.000000)">
                <path d="M22.3996774,0 C28.3051924,0 33.8579124,2.29996688 38.0330523,6.47510676 C46.6505282,15.0925827 46.6473283,29.1131808 38.0330523,37.7306567 C33.8579124,41.9041966 28.3083924,44.2025635 22.4036774,44.2025635 C16.5021624,44.2025635 10.9518423,41.9041966 6.7775024,37.7306567 C2.60236253,33.5579168 0.303995622,28.0067967 0.303995622,22.1012817 C0.300795668,16.1957668 2.59836258,10.6446467 6.77430245,6.47110681 C10.9494423,2.29756691 16.4981624,0 22.3996774,0 Z M15.9927297,27.4784843 C17.5463073,27.4784843 18.8078892,26.2177025 18.8078892,24.6625249 C18.8078892,23.1089472 17.5463073,21.8481654 15.9927297,21.8481654 C14.4383521,21.8481654 13.1767703,23.1089472 13.1767703,24.6625249 C13.1767703,26.2177025 14.4383521,27.4784843 15.9927297,27.4784843 Z M28.8143851,27.4784843 C30.3687627,27.4784843 31.6303445,26.2177025 31.6303445,24.6625249 C31.6303445,23.1089472 30.3687627,21.8481654 28.8143851,21.8481654 C27.2600075,21.8481654 25.9984256,23.1089472 25.9984256,24.6625249 C25.9984256,26.2177025 27.2600075,27.4784843 28.8143851,27.4784843 Z M18.2137377,11.5091943 C17.1361532,11.5091943 16.0361691,11.8283897 14.929785,12.7227768 C14.5265908,13.0491721 14.4633917,13.6387636 14.789787,14.0427578 C15.1161823,14.445952 15.7065738,14.5075511 16.109768,14.1819558 C17.7409445,12.8635748 19.2505228,13.3787673 21.5824892,14.3227537 C23.8256569,15.2315407 26.3688203,16.2595259 28.9351833,14.1819558 C29.3383775,13.8555605 29.3999766,13.262769 29.0743813,12.8619748 C28.748786,12.4571806 28.1583945,12.3963815 27.7552003,12.7227768 C26.1312237,14.0363579 24.6208455,13.5267652 22.2864791,12.5835788 C21.0064975,12.0659862 19.6313173,11.5091943 18.2137377,11.5091943 Z" id="Combined-Shape"></path>
            </g>
        </g>
    </g>
</svg>