<?xml version="1.0" encoding="UTF-8"?>
<svg width="45px" height="45px" viewBox="0 0 45 45" version="1.1" xmlns="http://www.w3.org/2000/svg" xmlns:xlink="http://www.w3.org/1999/xlink">
    <!-- Generator: Sketch 54.1 (76490) - https://sketchapp.com -->
    <title>meh</title>
    <desc>Created with Sketch.</desc>
    <g id="Page-2" stroke="none" stroke-width="1" fill="none" fill-rule="evenodd">
        <g id="Desktop-HD" transform="translate(-237.000000, -114.000000)" fill="#FBD42D" fill-rule="nonzero">
            <g id="meh" transform="translate(259.702626, 136.500000) scale(-1, 1) rotate(-180.000000) translate(-259.702626, -136.500000) translate(237.202626, 114.000000)">
                <path d="M22.3996774,0 C28.3051924,0 33.8579124,2.29996688 38.0330523,6.47510676 C46.6505282,15.0925827 46.6473283,29.1131808 38.0330523,37.7306567 C33.8579124,41.9041966 28.3083924,44.2025635 22.4036774,44.2025635 C16.5021624,44.2025635 10.9518423,41.9041966 6.7775024,37.7306567 C2.60236253,33.5579168 0.303995622,28.0067967 0.303995622,22.1012817 C0.29999568,16.1957668 2.59836258,10.6446467 6.77430245,6.47110681 C10.9494423,2.29756691 16.4981624,0 22.3996774,0 Z M15.9927297,27.4784843 C17.5463073,27.4784843 18.8078892,26.2177025 18.8078892,24.6625249 C18.8078892,23.1089472 17.5463073,21.8481654 15.9927297,21.8481654 C14.4383521,21.8481654 13.1767703,23.1089472 13.1767703,24.6625249 C13.1767703,26.2177025 14.4383521,27.4784843 15.9927297,27.4784843 Z M28.8143851,27.4784843 C30.3687627,27.4784843 31.6303445,26.2177025 31.6303445,24.6625249 C31.6303445,23.1089472 30.3687627,21.8481654 28.8143851,21.8481654 C27.2600075,21.8481654 25.9984256,23.1089472 25.9984256,24.6625249 C25.9984256,26.2177025 27.2600075,27.4784843 28.8143851,27.4784843 Z M30.6112392,13.9505991 C30.6112392,13.4330066 30.1912452,13.0122126 29.6728527,13.0122126 L15.1210623,13.0122126 C14.6026697,13.0122126 14.1826758,13.4330066 14.1826758,13.9505991 C14.1826758,14.4681917 14.6026697,14.8889856 15.1210623,14.8889856 L29.6728527,14.8889856 C30.1912452,14.8889856 30.6112392,14.4681917 30.6112392,13.9505991 Z" id="Combined-Shape"></path>
            </g>
        </g>
    </g>
</svg>