<?xml version="1.0" encoding="UTF-8"?>
<svg width="45px" height="45px" viewBox="0 0 45 45" version="1.1" xmlns="http://www.w3.org/2000/svg" xmlns:xlink="http://www.w3.org/1999/xlink">
    <!-- Generator: Sketch 54.1 (76490) - https://sketchapp.com -->
    <title>neutral</title>
    <desc>Created with Sketch.</desc>
    <g id="Page-2" stroke="none" stroke-width="1" fill="none" fill-rule="evenodd">
        <g id="Desktop-HD" transform="translate(-64.000000, -115.000000)" fill="#A1A3A5" fill-rule="nonzero">
            <g id="neutral" transform="translate(86.200004, 136.767196) scale(-1, 1) rotate(-180.000000) translate(-86.200004, -136.767196) translate(63.700004, 114.267196)">
                <path d="M22.3996774,-2.84217094e-14 C28.3043924,-2.84217094e-14 33.8539125,2.29996688 38.0330523,6.47510676 C46.6465283,15.0925827 46.6465283,29.1131808 38.0290524,37.7306567 C33.8579124,41.9041966 28.3043924,44.2025635 22.4028774,44.2025635 C16.4981624,44.2025635 10.9486423,41.9041966 6.77670241,37.7306567 C2.60156254,33.5579168 0.29999568,28.0067967 0.29999568,22.1012817 C0.29999568,16.1957668 2.59836258,10.6446467 6.77350246,6.47110681 C10.9454424,2.29756691 16.4941625,-2.84217094e-14 22.3996774,-2.84217094e-14 Z M15.9888898,27.4785643 C17.5424674,27.4785643 18.8040492,26.2177825 18.8040492,24.6626049 C18.8040492,23.1090272 17.5424674,21.8482454 15.9888898,21.8482454 C14.4345121,21.8482454 13.1729303,23.1090272 13.1729303,24.6626049 C13.1729303,26.2177825 14.4345121,27.4785643 15.9888898,27.4785643 Z M28.8136651,27.4785643 C30.3680427,27.4785643 31.6296245,26.2177825 31.6296245,24.6626049 C31.6296245,23.1090272 30.3680427,21.8482454 28.8136651,21.8482454 C27.2608874,21.8482454 25.9985056,23.1090272 25.9985056,24.6626049 C25.9985056,26.2177825 27.2608874,27.4785643 28.8136651,27.4785643 Z M14.4232323,9.33586556 C14.0312379,9.33586556 13.6608433,9.58626196 13.5328451,9.98305624 C13.3720474,10.4742492 13.6392436,11.0054415 14.1344365,11.1670392 L32.2741752,17.1109536 C32.7653682,17.2701513 33.2933606,17.0021552 33.4589582,16.5093623 C33.6197559,16.0181693 33.3477598,15.486177 32.8573668,15.3253793 L14.7168281,9.38226489 C14.6168295,9.35106534 14.5216309,9.33586556 14.4232323,9.33586556 Z" id="Combined-Shape"></path>
            </g>
        </g>
    </g>
</svg>