<?xml version="1.0" encoding="UTF-8"?>
<svg width="45px" height="45px" viewBox="0 0 45 45" version="1.1" xmlns="http://www.w3.org/2000/svg" xmlns:xlink="http://www.w3.org/1999/xlink">
    <!-- Generator: Sketch 54.1 (76490) - https://sketchapp.com -->
    <title>ok</title>
    <desc>Created with Sketch.</desc>
    <g id="Page-2" stroke="none" stroke-width="1" fill="none" fill-rule="evenodd">
        <g id="Desktop-HD" transform="translate(-180.000000, -114.000000)" fill="#C3D735" fill-rule="nonzero">
            <g id="ok" transform="translate(202.369851, 136.500000) scale(-1, 1) rotate(-180.000000) translate(-202.369851, -136.500000) translate(179.869851, 114.000000)">
                <path d="M22.3996774,-5.68434189e-14 C28.3051924,-5.68434189e-14 33.8579124,2.29996688 38.0330523,6.47510676 C46.6505282,15.0925827 46.6473283,29.1131808 38.0330523,37.7306567 C33.8579124,41.9041966 28.3083924,44.2025635 22.4036774,44.2025635 C16.5021624,44.2025635 10.9518423,41.9041966 6.7775024,37.7306567 C2.60236253,33.5579168 0.303995622,28.0067967 0.303995622,22.1012817 C0.29999568,16.1957668 2.59836258,10.6446467 6.77430245,6.47110681 C10.9494423,2.29756691 16.4981624,-5.68434189e-14 22.3996774,-5.68434189e-14 Z M15.9927297,27.4784843 C17.5463073,27.4784843 18.8078892,26.2177025 18.8078892,24.6625249 C18.8078892,23.1089472 17.5463073,21.8481654 15.9927297,21.8481654 C14.4383521,21.8481654 13.1767703,23.1089472 13.1767703,24.6625249 C13.1767703,26.2177025 14.4383521,27.4784843 15.9927297,27.4784843 Z M28.8143851,27.4784843 C30.3687627,27.4784843 31.6303445,26.2177025 31.6303445,24.6625249 C31.6303445,23.1089472 30.3687627,21.8481654 28.8143851,21.8481654 C27.2600075,21.8481654 25.9984256,23.1089472 25.9984256,24.6625249 C25.9984256,26.2177025 27.2600075,27.4784843 28.8143851,27.4784843 Z M12.6771774,16.4192836 C12.9451736,16.4192836 13.2123697,16.3032852 13.3947671,16.0824884 C13.611564,15.8256921 13.8315608,15.5744957 14.0731573,15.3352992 C16.2979253,13.1097312 19.2570827,11.8833489 22.4050374,11.8833489 C25.8729874,11.8833489 29.1537402,13.4137268 31.4073077,16.0840884 C31.7417029,16.4816827 32.3312944,16.529682 32.7272887,16.1960868 C33.123283,15.8624916 33.1744823,15.2697001 32.8408871,14.8745058 C30.2305247,11.7809504 26.4297794,10.0065759 22.4050374,10.0065759 C18.7546899,10.0065759 15.3275393,11.4273554 12.7467764,14.0073183 C12.4635805,14.2881142 12.2075842,14.5793101 11.9547878,14.8801057 C11.6251926,15.2777 11.6763919,15.8688915 12.0763861,16.2016867 C12.2483836,16.3480846 12.4635805,16.4192836 12.6771774,16.4192836 Z" id="Combined-Shape"></path>
            </g>
        </g>
    </g>
</svg>