<?xml version="1.0" encoding="UTF-8"?>
<svg width="45px" height="45px" viewBox="0 0 45 45" version="1.1" xmlns="http://www.w3.org/2000/svg" xmlns:xlink="http://www.w3.org/1999/xlink">
    <!-- Generator: Sketch 54.1 (76490) - https://sketchapp.com -->
    <title>yay</title>
    <desc>Created with Sketch.</desc>
    <g id="Page-2" stroke="none" stroke-width="1" fill="none" fill-rule="evenodd">
        <g id="Desktop-HD" transform="translate(-120.000000, -114.000000)" fill="#97CD2E" fill-rule="nonzero">
            <g id="yay" transform="translate(142.370715, 136.500000) scale(-1, 1) rotate(-180.000000) translate(-142.370715, -136.500000) translate(119.870715, 114.000000)">
                <path d="M22.3996774,-5.68434189e-14 C28.3051924,-5.68434189e-14 33.8579124,2.29996688 38.0330523,6.47510676 C46.6505282,15.0925827 46.6473283,29.1131808 38.0330523,37.7306567 C33.8579124,41.9041966 28.3083924,44.2025635 22.4036774,44.2025635 C16.5021624,44.2025635 10.9518423,41.9041966 6.7775024,37.7306567 C2.60236253,33.5579168 0.303995622,28.0067967 0.303995622,22.1012817 C0.29999568,16.1957668 2.59836258,10.6446467 6.77430245,6.47110681 C10.9494423,2.29756691 16.4981624,-5.68434189e-14 22.3996774,-5.68434189e-14 Z M15.9927297,27.4784843 C17.5463073,27.4784843 18.8078892,26.2177025 18.8078892,24.6625249 C18.8078892,23.1089472 17.5463073,21.8481654 15.9927297,21.8481654 C14.4383521,21.8481654 13.1767703,23.1089472 13.1767703,24.6625249 C13.1767703,26.2177025 14.4383521,27.4784843 15.9927297,27.4784843 Z M28.8143851,27.4784843 C30.3687627,27.4784843 31.6303445,26.2177025 31.6303445,24.6625249 C31.6303445,23.1089472 30.3687627,21.8481654 28.8143851,21.8481654 C27.2600075,21.8481654 25.9984256,23.1089472 25.9984256,24.6625249 C25.9984256,26.2177025 27.2600075,27.4784843 28.8143851,27.4784843 Z M12.0763861,16.2013667 C12.3075828,16.4869626 32.3328944,16.4781627 32.7272887,16.1957668 C33.122483,15.9141708 33.1744823,15.2701801 32.8408871,14.8749858 C30.2305247,11.7814303 26.4297794,10.0070559 22.4050374,10.0070559 C18.7546899,10.0070559 15.3267393,11.4270354 12.7467764,14.0077983 C12.4635805,14.2877943 12.2075842,14.57979 11.9547878,14.8805857 C11.6251926,15.27818 11.8451894,15.9157708 12.0763861,16.2013667 Z" id="Combined-Shape"></path>
            </g>
        </g>
    </g>
</svg>